<?xml version="1.0" encoding="utf-8"?>
<!-- Generator: Adobe Illustrator 19.0.0, SVG Export Plug-In . SVG Version: 6.00 Build 0)  -->
<!DOCTYPE svg PUBLIC "-//W3C//DTD SVG 1.1//EN" "http://www.w3.org/Graphics/SVG/1.1/DTD/svg11.dtd">
<svg version="1.1" id="Layer_1" xmlns="http://www.w3.org/2000/svg" xmlns:xlink="http://www.w3.org/1999/xlink" x="0px" y="0px"
	 viewBox="0 0 40 40" enable-background="new 0 0 40 40" xml:space="preserve">
<path id="XMLID_11_" fill="#010101" d="M33.2,31.8l-6-6c1.7-2,2.7-4.5,2.7-7.3C29.9,12.1,24.7,7,18.4,7S7,12.1,7,18.4
	s5.1,11.4,11.4,11.4c2.8,0,5.3-1,7.3-2.7l6,6c0.2,0.2,0.5,0.3,0.7,0.3s0.5-0.1,0.7-0.3C33.6,32.8,33.6,32.1,33.2,31.8z M9,18.4
	C9,13.2,13.3,9,18.4,9c5.2,0,9.4,4.2,9.4,9.4c0,5.2-4.2,9.4-9.4,9.4C13.3,27.8,9,23.6,9,18.4z"/>
</svg>
