<?xml version="1.0" encoding="utf-8"?>
<!-- Generator: Adobe Illustrator 19.0.0, SVG Export Plug-In . SVG Version: 6.00 Build 0)  -->
<!DOCTYPE svg PUBLIC "-//W3C//DTD SVG 1.1//EN" "http://www.w3.org/Graphics/SVG/1.1/DTD/svg11.dtd">
<svg version="1.1" id="Layer_1" xmlns="http://www.w3.org/2000/svg" xmlns:xlink="http://www.w3.org/1999/xlink" x="0px" y="0px"
	 viewBox="23 0 85 40" enable-background="new 23 0 85 40" xml:space="preserve">
<path fill="#FFFFFF" d="M93,5.8c-6.9,0-11,14.8-11,14.8c-2.7,7.8-4.3,9.9-4.3,9.9c-2.2,3.3-5,4-7,4.1c-2.5,0-4.2-1.9-4.2-1.9
	c6,3.7,9.2-4.9,10-6.7c0.7-1.8,4.6-12.2,4.6-12.2s3.2-8.1,10-8.1C91.2,5.7,92.1,5.7,93,5.8"/>
<path fill="#FFFFFF" d="M37.9,34.3c6.9,0,11-14.8,11-14.8c2.3-6.7,3.8-9.2,4.2-9.7c3-4.4,8-3.8,8-3.8s1.7,0,3.4,1.5
	c-6.3-3.4-9.3,4.9-10,6.7c-0.7,1.8-4.6,12.2-4.6,12.2s-3.2,8.1-10,8.1C39.8,34.5,38.8,34.5,37.9,34.3"/>
<path fill="#FFFFFF" d="M108,5.8c-6.9,0-11,14.8-11,14.8c-2.7,7.8-4.3,9.9-4.3,9.9c-2.2,3.3-5,4-7,4.1c-2.5,0-4.2-1.9-4.2-1.9
	c6,3.7,9.2-4.9,10-6.7c0.7-1.8,4.6-12.2,4.6-12.2s3.2-8.1,10-8.1C106.1,5.7,107.1,5.7,108,5.8"/>
<path fill="#C3002F" d="M61,6c0,0-5-0.6-8,3.9c0,0,2.2-4.5,8.4-4.5c0,0,5.8,0.1,8.9,4.5c0,0,1.7,1.8,4.4,9.7c0,0,4.4,14.7,11.1,14.9
	c0,0-0.6,0.2-1.9,0.2c-6.9-0.1-10.1-8.2-10.1-8.2s-3.9-10.4-4.6-12.2C68.4,12.5,65.3,6,60.6,6"/>
<path fill="#FFFFFF" d="M22.9,34.3c6.9,0,11-14.8,11-14.8c2.3-6.7,3.8-9.2,4.2-9.7c3-4.4,8-3.8,8-3.8s1.7,0,3.4,1.5
	c-6.3-3.4-9.3,4.9-10,6.7c-0.7,1.8-4.6,12.2-4.6,12.2s-3.2,8.1-10,8.1C24.8,34.5,23.8,34.5,22.9,34.3"/>
<path fill="#C3002F" d="M46.1,6c0,0-5-0.6-8,3.9c0,0,2.2-4.5,8.4-4.5c0,0,5.8,0.1,8.9,4.5c0,0,1.7,1.8,4.4,9.7
	c0,0,4.4,14.7,11.1,14.9c0,0-0.6,0.2-1.9,0.2c-6.9-0.1-10.1-8.2-10.1-8.2s-3.9-10.4-4.6-12.2C53.5,12.5,50.4,6,45.7,6"/>
</svg>
