<?xml version="1.0" encoding="utf-8"?>
<!-- Generator: Adobe Illustrator 19.0.0, SVG Export Plug-In . SVG Version: 6.00 Build 0)  -->
<!DOCTYPE svg PUBLIC "-//W3C//DTD SVG 1.1//EN" "http://www.w3.org/Graphics/SVG/1.1/DTD/svg11.dtd">
<svg version="1.1" id="Layer_1" xmlns="http://www.w3.org/2000/svg" xmlns:xlink="http://www.w3.org/1999/xlink" x="0px" y="0px"
	 viewBox="0 0 190 45" enable-background="new 0 0 190 45" xml:space="preserve">
<g id="XMLID_39_">
	<path id="XMLID_112_" fill="#010101" d="M10.2,11.5L10.2,11.5c0.3-1,1.3-4,1.7-5.4C11.9,5.8,12,5.6,12,5.5c0-0.2-0.1-0.3-0.6-0.3
		c-0.1,0-0.1,0-0.1-0.1C11.3,5,11.3,5,11.4,5c0.5,0,1,0,1.1,0c0.1,0,0.5,0,0.9,0c0.1,0,0.1,0,0.1,0.1c0,0.1,0,0.1-0.1,0.1
		c0,0-0.2,0-0.4,0.1c-0.3,0.1-0.5,0.6-0.7,1.1c-0.5,1.3-1.5,4.7-1.9,5.9c-0.3,0.8-0.3,0.9-0.4,0.9c-0.1,0-0.2-0.1-0.3-0.5L7.6,6.7h0
		c-0.4,1-1.8,4.9-2.2,5.8c-0.2,0.4-0.2,0.6-0.3,0.6c-0.1,0-0.2-0.1-0.4-0.8L2.8,6C2.6,5.5,2.5,5.3,2.2,5.2C2.1,5.2,1.8,5.2,1.8,5.2
		c-0.1,0-0.1,0-0.1-0.1C1.7,5,1.7,5,1.8,5C2.4,5,3,5,3.1,5c0.1,0,0.6,0,1.1,0c0.1,0,0.2,0,0.2,0.1c0,0.1-0.1,0.1-0.1,0.1
		c-0.1,0-0.3,0-0.4,0.1c-0.1,0-0.1,0.1-0.1,0.3c0,0.1,0.1,0.5,0.2,1c0.2,0.7,1.3,4.5,1.4,5.1h0l2.2-6C7.7,5.1,7.8,5,7.8,5
		C7.9,5,8,5.2,8.1,5.5L10.2,11.5z"/>
	<path id="XMLID_111_" fill="#010101" d="M17.2,9.9c0,1,0,1.8,0.1,2.3c0,0.3,0.1,0.5,0.4,0.6c0.1,0,0.4,0,0.5,0c0.1,0,0.1,0,0.1,0.1
		c0,0.1-0.1,0.1-0.2,0.1c-0.6,0-1.2,0-1.3,0c-0.1,0-0.7,0-1,0c-0.1,0-0.2,0-0.2-0.1c0,0,0-0.1,0.1-0.1c0.1,0,0.2,0,0.3,0
		c0.2,0,0.3-0.3,0.3-0.6c0.1-0.4,0.1-1.3,0.1-2.3V8.1c0-1.6,0-1.9,0-2.3c0-0.4-0.1-0.5-0.4-0.6c-0.1,0-0.3,0-0.3,0
		c0,0-0.1,0-0.1-0.1C15.5,5,15.6,5,15.7,5c0.3,0,1,0,1.1,0c0.1,0,0.7,0,1,0c0.1,0,0.2,0,0.2,0.1c0,0,0,0.1-0.1,0.1
		c-0.1,0-0.1,0-0.3,0c-0.3,0-0.4,0.2-0.4,0.6c0,0.3,0,0.6,0,2.3V9.9z"/>
	<path id="XMLID_110_" fill="#010101" d="M21.3,12.8c-0.1-0.1-0.2-0.1-0.2-0.4c0-0.5,0-0.9,0.1-1.1c0-0.1,0-0.2,0.1-0.2
		c0.1,0,0.1,0,0.1,0.1c0,0.1,0,0.2,0,0.4c0.2,0.8,0.9,1.1,1.6,1.1c1,0,1.5-0.7,1.5-1.4c0-0.7-0.3-1.1-1.2-1.9L22.8,9
		c-1.1-0.9-1.4-1.6-1.4-2.3c0-1.1,0.8-1.9,2.2-1.9c0.4,0,0.7,0,1,0.1C24.8,5,24.8,5,24.9,5C25,5,25,5,25,5.1c0,0.1,0,0.4,0,1.1
		c0,0.2,0,0.2-0.1,0.2c-0.1,0-0.1-0.1-0.1-0.1c0-0.1-0.1-0.4-0.1-0.5c-0.1-0.1-0.3-0.6-1.3-0.6c-0.7,0-1.3,0.5-1.3,1.2
		c0,0.6,0.3,1,1.3,1.8l0.3,0.2c1.2,1,1.5,1.6,1.5,2.5c0,0.4-0.2,1.2-0.9,1.7c-0.5,0.3-1,0.4-1.6,0.4C22.2,13.1,21.7,13,21.3,12.8"/>
	<path id="XMLID_109_" fill="#010101" d="M29.1,12c-1-0.9-1.3-2.1-1.3-3.1c0-0.7,0.2-1.9,1.2-2.9c0.6-0.6,1.6-1.1,3.2-1.1
		c0.4,0,1,0,1.5,0.1c0.4,0.1,0.7,0.1,1.1,0.2c0.1,0,0.1,0.1,0.1,0.1c0,0.1,0,0.2-0.1,0.6c0,0.3,0,0.9,0,1.1c0,0.2,0,0.2-0.1,0.2
		c-0.1,0-0.1-0.1-0.1-0.2c0-0.4-0.2-0.8-0.4-1.1c-0.4-0.3-1.2-0.6-2.1-0.6c-1.4,0-2.1,0.4-2.4,0.8c-0.8,0.7-0.9,1.7-0.9,2.7
		c0,2,1.5,3.8,3.8,3.8c0.8,0,1.4-0.1,1.8-0.5c0.2-0.2,0.4-0.7,0.4-0.9c0-0.1,0-0.2,0.1-0.2c0.1,0,0.1,0.1,0.1,0.2
		c0,0.1-0.1,1-0.2,1.3c-0.1,0.2-0.1,0.2-0.3,0.3c-0.4,0.2-1.2,0.2-1.9,0.2C31,13.1,29.9,12.7,29.1,12"/>
	<path id="XMLID_103_" fill="#010101" d="M41.4,4.9c2.4,0,4.1,1.5,4.1,3.9c0,2.4-1.7,4.3-4.2,4.3c-2.9,0-4.1-2.2-4.1-4.1
		C37.3,7.3,38.5,4.9,41.4,4.9 M41.6,12.7c0.9,0,2.9-0.5,2.9-3.6c0-2.5-1.5-3.9-3.2-3.9c-1.8,0-3.1,1.2-3.1,3.5
		C38.3,11.1,39.7,12.7,41.6,12.7"/>
	<path id="XMLID_101_" fill="#010101" d="M49.1,11.5c0,0.9,0.1,1.1,0.4,1.2c0.2,0.1,0.4,0.1,0.5,0.1c0.1,0,0.1,0,0.1,0.1
		c0,0.1-0.1,0.1-0.2,0.1c-0.6,0-1,0-1.1,0c-0.1,0-0.5,0-1,0c-0.1,0-0.2,0-0.2-0.1c0,0,0-0.1,0.1-0.1c0.1,0,0.3,0,0.4-0.1
		c0.3-0.1,0.3-0.4,0.3-1.3l0-6c0-0.4,0-0.5,0.1-0.5c0.1,0,0.3,0.2,0.4,0.3c0.2,0.2,1.7,1.9,3.3,3.6c1,1.1,2.2,2.4,2.5,2.7l-0.1-5.3
		c0-0.7-0.1-0.9-0.4-1c-0.2,0-0.4-0.1-0.5-0.1c-0.1,0-0.1,0-0.1-0.1C53.7,5,53.8,5,53.9,5c0.5,0,1,0,1.1,0c0.1,0,0.5,0,0.9,0
		c0.1,0,0.2,0,0.2,0.1c0,0,0,0.1-0.1,0.1c-0.1,0-0.1,0-0.3,0c-0.3,0.1-0.4,0.3-0.4,0.9l0,6.2c0,0.7,0,0.7-0.1,0.7
		c-0.1,0-0.2-0.1-0.8-0.7c-0.1-0.1-1.6-1.7-2.7-2.9c-1.2-1.3-2.4-2.6-2.7-3L49.1,11.5z"/>
	<path id="XMLID_99_" fill="#010101" d="M59.2,12.8C59,12.7,59,12.7,59,12.4c0-0.5,0-0.9,0.1-1.1c0-0.1,0-0.2,0.1-0.2
		c0.1,0,0.1,0,0.1,0.1c0,0.1,0,0.2,0,0.4c0.2,0.8,0.9,1.1,1.6,1.1c1,0,1.5-0.7,1.5-1.4c0-0.7-0.3-1.1-1.2-1.9L60.6,9
		c-1.1-0.9-1.4-1.6-1.4-2.3c0-1.1,0.8-1.9,2.2-1.9c0.4,0,0.7,0,1,0.1C62.6,5,62.7,5,62.8,5c0.1,0,0.1,0,0.1,0.1c0,0.1,0,0.4,0,1.1
		c0,0.2,0,0.2-0.1,0.2c-0.1,0-0.1-0.1-0.1-0.1c0-0.1-0.1-0.4-0.1-0.5c-0.1-0.1-0.3-0.6-1.3-0.6c-0.7,0-1.3,0.5-1.3,1.2
		c0,0.6,0.3,1,1.3,1.8l0.3,0.2c1.2,1,1.5,1.6,1.5,2.5c0,0.4-0.2,1.2-0.9,1.7c-0.5,0.3-1,0.4-1.6,0.4C60.1,13.1,59.6,13,59.2,12.8"/>
	<path id="XMLID_97_" fill="#010101" d="M67.8,9.9c0,1,0,1.8,0.1,2.3c0,0.3,0.1,0.5,0.4,0.6c0.1,0,0.4,0,0.5,0c0.1,0,0.1,0,0.1,0.1
		c0,0.1-0.1,0.1-0.2,0.1c-0.6,0-1.2,0-1.3,0c-0.1,0-0.7,0-1,0c-0.1,0-0.2,0-0.2-0.1c0,0,0-0.1,0.1-0.1c0.1,0,0.2,0,0.3,0
		c0.2,0,0.3-0.3,0.3-0.6c0.1-0.4,0.1-1.3,0.1-2.3V8.1c0-1.6,0-1.9,0-2.3c0-0.4-0.1-0.5-0.4-0.6c-0.1,0-0.3,0-0.3,0
		c0,0-0.1,0-0.1-0.1C66.1,5,66.2,5,66.3,5c0.3,0,1,0,1.1,0c0.1,0,0.7,0,1,0c0.1,0,0.2,0,0.2,0.1c0,0,0,0.1-0.1,0.1
		c-0.1,0-0.1,0-0.3,0c-0.3,0-0.4,0.2-0.4,0.6c0,0.3,0,0.6,0,2.3V9.9z"/>
	<path id="XMLID_95_" fill="#010101" d="M72.9,11.5c0,0.9,0.1,1.1,0.4,1.2c0.2,0.1,0.4,0.1,0.5,0.1c0.1,0,0.1,0,0.1,0.1
		c0,0.1-0.1,0.1-0.2,0.1c-0.6,0-1,0-1.1,0c-0.1,0-0.5,0-1,0c-0.1,0-0.2,0-0.2-0.1c0,0,0-0.1,0.1-0.1c0.1,0,0.3,0,0.4-0.1
		c0.3-0.1,0.3-0.4,0.3-1.3l0-6c0-0.4,0-0.5,0.1-0.5c0.1,0,0.3,0.2,0.4,0.3c0.2,0.2,1.7,1.9,3.3,3.6c1,1.1,2.2,2.4,2.5,2.7l-0.1-5.3
		c0-0.7-0.1-0.9-0.4-1c-0.2,0-0.4-0.1-0.5-0.1c-0.1,0-0.1,0-0.1-0.1C77.5,5,77.6,5,77.7,5c0.5,0,1,0,1.1,0c0.1,0,0.5,0,0.9,0
		c0.1,0,0.2,0,0.2,0.1c0,0,0,0.1-0.1,0.1c-0.1,0-0.1,0-0.3,0c-0.3,0.1-0.4,0.3-0.4,0.9l0,6.2c0,0.7,0,0.7-0.1,0.7
		c-0.1,0-0.2-0.1-0.8-0.7c-0.1-0.1-1.6-1.7-2.7-2.9c-1.2-1.3-2.4-2.6-2.7-3L72.9,11.5z"/>
	<path id="XMLID_93_" fill="#010101" d="M89,9.9c0,1,0,1.8,0.1,2.3c0,0.3,0.1,0.5,0.4,0.6c0.1,0,0.4,0,0.5,0c0.1,0,0.1,0,0.1,0.1
		c0,0.1-0.1,0.1-0.2,0.1c-0.6,0-1.2,0-1.3,0c-0.1,0-0.7,0-1,0c-0.1,0-0.2,0-0.2-0.1c0,0,0-0.1,0.1-0.1c0.1,0,0.2,0,0.3,0
		c0.2,0,0.3-0.3,0.3-0.6c0.1-0.4,0.1-1.3,0.1-2.3V8.1c0-1.6,0-1.9,0-2.3c0-0.4-0.1-0.5-0.4-0.6c-0.1,0-0.3,0-0.3,0
		c0,0-0.1,0-0.1-0.1C87.3,5,87.4,5,87.5,5c0.3,0,1,0,1.1,0c0.1,0,0.7,0,1,0c0.1,0,0.2,0,0.2,0.1c0,0,0,0.1-0.1,0.1
		c-0.1,0-0.1,0-0.3,0c-0.3,0-0.4,0.2-0.4,0.6c0,0.3,0,0.6,0,2.3V9.9z"/>
	<path id="XMLID_91_" fill="#010101" d="M94.1,11.5c0,0.9,0.1,1.1,0.4,1.2c0.2,0.1,0.4,0.1,0.5,0.1c0.1,0,0.1,0,0.1,0.1
		c0,0.1-0.1,0.1-0.2,0.1c-0.6,0-1,0-1.1,0c-0.1,0-0.5,0-1,0c-0.1,0-0.2,0-0.2-0.1c0,0,0-0.1,0.1-0.1c0.1,0,0.3,0,0.4-0.1
		c0.3-0.1,0.3-0.4,0.3-1.3l0-6c0-0.4,0-0.5,0.1-0.5s0.3,0.2,0.4,0.3c0.2,0.2,1.7,1.9,3.3,3.6c1,1.1,2.2,2.4,2.5,2.7l-0.1-5.3
		c0-0.7-0.1-0.9-0.4-1c-0.2,0-0.4-0.1-0.5-0.1c-0.1,0-0.1,0-0.1-0.1C98.7,5,98.8,5,98.9,5c0.5,0,1,0,1.1,0c0.1,0,0.5,0,0.9,0
		c0.1,0,0.2,0,0.2,0.1c0,0,0,0.1-0.1,0.1c-0.1,0-0.1,0-0.2,0c-0.3,0.1-0.4,0.3-0.4,0.9l0,6.2c0,0.7,0,0.7-0.1,0.7
		c-0.1,0-0.2-0.1-0.8-0.7c-0.1-0.1-1.6-1.7-2.7-2.9c-1.2-1.3-2.4-2.6-2.7-3L94.1,11.5z"/>
	<path id="XMLID_89_" fill="#010101" d="M104.1,12.8c-0.2-0.1-0.2-0.1-0.2-0.4c0-0.5,0-0.9,0.1-1.1c0-0.1,0-0.2,0.1-0.2
		c0.1,0,0.1,0,0.1,0.1c0,0.1,0,0.2,0,0.4c0.2,0.8,0.9,1.1,1.6,1.1c1,0,1.5-0.7,1.5-1.4c0-0.7-0.3-1.1-1.2-1.9L105.6,9
		c-1.1-0.9-1.4-1.6-1.4-2.3c0-1.1,0.8-1.9,2.2-1.9c0.4,0,0.7,0,1,0.1c0.2,0,0.3,0.1,0.4,0.1c0.1,0,0.1,0,0.1,0.1c0,0.1,0,0.4,0,1.1
		c0,0.2,0,0.2-0.1,0.2c-0.1,0-0.1-0.1-0.1-0.1c0-0.1-0.1-0.4-0.1-0.5c-0.1-0.1-0.3-0.6-1.3-0.6c-0.7,0-1.3,0.5-1.3,1.2
		c0,0.6,0.3,1,1.3,1.8l0.3,0.2c1.2,1,1.5,1.6,1.5,2.5c0,0.4-0.2,1.2-0.9,1.7c-0.5,0.3-1,0.4-1.6,0.4C105.1,13.1,104.6,13,104.1,12.8
		"/>
	<path id="XMLID_88_" fill="#010101" d="M114.1,9.9c0,1,0,1.8,0.1,2.3c0,0.3,0.1,0.5,0.4,0.6c0.1,0,0.4,0,0.5,0c0.1,0,0.1,0,0.1,0.1
		c0,0.1-0.1,0.1-0.2,0.1c-0.6,0-1.2,0-1.3,0c-0.1,0-0.7,0-1,0c-0.1,0-0.2,0-0.2-0.1c0,0,0-0.1,0.1-0.1c0.1,0,0.2,0,0.3,0
		c0.2,0,0.3-0.3,0.3-0.6c0.1-0.4,0.1-1.3,0.1-2.3V5.5l-1.6,0c-0.7,0-0.9,0.1-1.1,0.3c-0.1,0.2-0.1,0.3-0.2,0.3
		c0,0.1-0.1,0.1-0.1,0.1c0,0-0.1,0-0.1-0.1c0-0.1,0.2-1,0.2-1.1c0-0.1,0.1-0.2,0.1-0.2c0.1,0,0.2,0.1,0.5,0.1c0.3,0,0.7,0.1,0.8,0.1
		h3.9c0.3,0,0.6,0,0.7-0.1c0.2,0,0.3-0.1,0.3-0.1c0.1,0,0.1,0.1,0.1,0.1c0,0.3,0,1,0,1.2c0,0.1,0,0.1-0.1,0.1c0,0-0.1,0-0.1-0.2
		l0-0.1c0-0.3-0.3-0.6-1.3-0.6l-1.3,0V9.9z"/>
	<path id="XMLID_86_" fill="#010101" d="M121.1,9.9c0,1,0,1.8,0.1,2.3c0,0.3,0.1,0.5,0.4,0.6c0.1,0,0.4,0,0.5,0c0.1,0,0.1,0,0.1,0.1
		c0,0.1-0.1,0.1-0.2,0.1c-0.6,0-1.2,0-1.3,0c-0.1,0-0.7,0-1,0c-0.1,0-0.2,0-0.2-0.1c0,0,0-0.1,0.1-0.1c0.1,0,0.2,0,0.3,0
		c0.2,0,0.3-0.3,0.3-0.6c0.1-0.4,0.1-1.3,0.1-2.3V8.1c0-1.6,0-1.9,0-2.3c0-0.4-0.1-0.5-0.4-0.6c-0.1,0-0.3,0-0.3,0
		c0,0-0.1,0-0.1-0.1c0-0.1,0.1-0.1,0.2-0.1c0.3,0,1,0,1.1,0c0.1,0,0.7,0,1,0c0.1,0,0.2,0,0.2,0.1c0,0,0,0.1-0.1,0.1
		c-0.1,0-0.1,0-0.3,0c-0.3,0-0.4,0.2-0.4,0.6c0,0.3,0,0.6,0,2.3V9.9z"/>
	<path id="XMLID_85_" fill="#010101" d="M128.1,9.9c0,1,0,1.8,0.1,2.3c0,0.3,0.1,0.5,0.4,0.6c0.1,0,0.4,0,0.5,0c0.1,0,0.1,0,0.1,0.1
		c0,0.1-0.1,0.1-0.2,0.1c-0.6,0-1.2,0-1.3,0c-0.1,0-0.7,0-1,0c-0.1,0-0.2,0-0.2-0.1c0,0,0-0.1,0.1-0.1c0.1,0,0.2,0,0.3,0
		c0.2,0,0.3-0.3,0.3-0.6c0.1-0.4,0.1-1.3,0.1-2.3V5.5l-1.6,0c-0.7,0-0.9,0.1-1.1,0.3c-0.1,0.2-0.1,0.3-0.2,0.3
		c0,0.1-0.1,0.1-0.1,0.1c0,0-0.1,0-0.1-0.1c0-0.1,0.2-1,0.2-1.1c0-0.1,0.1-0.2,0.1-0.2c0.1,0,0.2,0.1,0.5,0.1c0.3,0,0.7,0.1,0.8,0.1
		h3.9c0.3,0,0.6,0,0.7-0.1c0.2,0,0.3-0.1,0.3-0.1c0.1,0,0.1,0.1,0.1,0.1c0,0.3,0,1,0,1.2c0,0.1,0,0.1-0.1,0.1c-0.1,0-0.1,0-0.1-0.2
		l0-0.1c0-0.3-0.3-0.6-1.3-0.6l-1.3,0V9.9z"/>
	<path id="XMLID_83_" fill="#010101" d="M133.6,8.1c0-1.6,0-1.9,0-2.3c0-0.4-0.1-0.5-0.5-0.6c-0.1,0-0.3,0-0.4,0c0,0-0.1,0-0.1-0.1
		c0-0.1,0.1-0.1,0.2-0.1c0.5,0,1.1,0,1.2,0c0.1,0,0.7,0,1,0c0.1,0,0.2,0,0.2,0.1c0,0,0,0.1-0.1,0.1c-0.1,0-0.1,0-0.3,0
		c-0.3,0-0.4,0.2-0.4,0.6c0,0.3,0,0.6,0,2.3v1.5c0,1.5,0.3,2.2,0.8,2.6c0.5,0.5,1,0.6,1.6,0.6c0.6,0,1.3-0.3,1.7-0.8
		c0.5-0.6,0.6-1.5,0.6-2.6V8.1c0-1.6,0-1.9,0-2.3c0-0.4-0.1-0.5-0.5-0.6c-0.1,0-0.3,0-0.4,0c0,0-0.1,0-0.1-0.1
		c0-0.1,0.1-0.1,0.2-0.1c0.5,0,1.1,0,1.1,0c0.1,0,0.6,0,0.9,0c0.1,0,0.2,0,0.2,0.1c0,0,0,0.1-0.1,0.1c-0.1,0-0.1,0-0.3,0
		c-0.3,0.1-0.4,0.2-0.4,0.6c0,0.3,0,0.6,0,2.3v1.1c0,1.1-0.1,2.4-1,3.1c-0.8,0.7-1.5,0.8-2.2,0.8c-0.4,0-1.4,0-2.2-0.7
		c-0.5-0.5-0.9-1.2-0.9-2.8V8.1z"/>
	<path id="XMLID_82_" fill="#010101" d="M146.3,9.9c0,1,0,1.8,0.1,2.3c0,0.3,0.1,0.5,0.4,0.6c0.1,0,0.4,0,0.5,0c0.1,0,0.1,0,0.1,0.1
		c0,0.1-0.1,0.1-0.2,0.1c-0.6,0-1.2,0-1.3,0c-0.1,0-0.7,0-1,0c-0.1,0-0.2,0-0.2-0.1c0,0,0-0.1,0.1-0.1c0.1,0,0.2,0,0.3,0
		c0.2,0,0.3-0.3,0.3-0.6c0.1-0.4,0.1-1.3,0.1-2.3V5.5l-1.6,0c-0.7,0-0.9,0.1-1.1,0.3c-0.1,0.2-0.1,0.3-0.2,0.3
		c0,0.1-0.1,0.1-0.1,0.1c0,0-0.1,0-0.1-0.1c0-0.1,0.2-1,0.2-1.1c0-0.1,0.1-0.2,0.1-0.2c0.1,0,0.2,0.1,0.5,0.1c0.3,0,0.7,0.1,0.8,0.1
		h3.9c0.3,0,0.6,0,0.7-0.1c0.2,0,0.3-0.1,0.3-0.1c0.1,0,0.1,0.1,0.1,0.1c0,0.3,0,1,0,1.2c0,0.1,0,0.1-0.1,0.1c-0.1,0-0.1,0-0.1-0.2
		l0-0.1c0-0.3-0.3-0.6-1.3-0.6l-1.3,0V9.9z"/>
	<path id="XMLID_80_" fill="#010101" d="M152.3,8.1c0-1.6,0-1.9,0-2.3c0-0.4-0.1-0.5-0.5-0.6c-0.1,0-0.3,0-0.4,0c0,0-0.1,0-0.1-0.1
		c0-0.1,0.1-0.1,0.2-0.1c0.2,0,0.5,0,0.8,0l0.4,0c0.1,0,2.2,0,2.4,0c0.2,0,0.4,0,0.5-0.1c0.1,0,0.1-0.1,0.1-0.1c0,0,0,0,0,0.1
		c0,0.1-0.1,0.2-0.1,0.5c0,0.1,0,0.6-0.1,0.7c0,0.1,0,0.1-0.1,0.1c-0.1,0-0.1-0.1-0.1-0.1c0-0.1,0-0.3-0.1-0.4
		c-0.1-0.2-0.2-0.3-0.7-0.4c-0.2,0-1.3,0-1.4,0c0,0-0.1,0-0.1,0.1v2.9c0,0.1,0,0.1,0.1,0.1c0.1,0,1.4,0,1.7,0c0.3,0,0.4,0,0.5-0.1
		c0.1-0.1,0.1-0.1,0.2-0.1c0,0,0.1,0,0.1,0.1c0,0.1-0.1,0.2-0.1,0.6c0,0.2,0,0.6,0,0.7c0,0.1,0,0.2-0.1,0.2c-0.1,0-0.1,0-0.1-0.1
		c0-0.1,0-0.2,0-0.3c0-0.1-0.1-0.3-0.5-0.4c-0.3,0-1.3-0.1-1.5-0.1c-0.1,0-0.1,0-0.1,0.1v0.9c0,0.4,0,1.6,0,1.8
		c0,0.7,0.2,0.9,1.2,0.9c0.3,0,0.7,0,1-0.1c0.3-0.1,0.4-0.3,0.5-0.8c0-0.1,0-0.2,0.1-0.2c0.1,0,0.1,0.1,0.1,0.2c0,0.1-0.1,0.8-0.1,1
		c-0.1,0.3-0.2,0.3-0.6,0.3c-0.8,0-1.4,0-1.8,0c-0.4,0-0.7,0-0.8,0c0,0-0.2,0-0.4,0c-0.2,0-0.5,0-0.6,0c-0.1,0-0.2,0-0.2-0.1
		c0,0,0-0.1,0.1-0.1c0.1,0,0.2,0,0.3,0c0.2,0,0.3-0.3,0.3-0.6c0.1-0.4,0.1-1.3,0.1-2.3V8.1z"/>
	<path id="XMLID_78_" fill="#010101" d="M165,8.1c0-1.6,0-1.9,0-2.3c0-0.4-0.1-0.5-0.5-0.6c-0.1,0-0.3,0-0.4,0c0,0-0.1,0-0.1-0.1
		c0-0.1,0.1-0.1,0.2-0.1c0.2,0,0.5,0,0.8,0l0.4,0c0.2,0,2.3,0,2.6,0c0.2,0,0.4,0,0.5,0c0.1,0,0.1-0.1,0.1-0.1c0,0,0.1,0,0.1,0.1
		c0,0.1-0.1,0.2-0.1,0.5c0,0.1,0,0.6-0.1,0.7c0,0.1,0,0.1-0.1,0.1c-0.1,0-0.1-0.1-0.1-0.1c0-0.1,0-0.3-0.1-0.4
		c-0.1-0.1-0.3-0.3-0.7-0.3l-1.6,0c-0.1,0-0.1,0-0.1,0.1v2.9c0,0.1,0,0.1,0.1,0.1l1.3,0c0.2,0,0.3,0,0.5,0c0.3,0,0.4-0.1,0.5-0.2
		c0-0.1,0.1-0.1,0.1-0.1c0,0,0.1,0,0.1,0.1c0,0.1-0.1,0.2-0.1,0.6c0,0.2,0,0.6,0,0.7c0,0.1,0,0.2-0.1,0.2c0,0-0.1,0-0.1-0.1
		c0-0.1,0-0.3-0.1-0.4c-0.1-0.1-0.2-0.3-0.5-0.4c-0.3,0-1.4,0-1.6,0c-0.1,0-0.1,0-0.1,0.1v0.9c0,1,0,1.8,0.1,2.3
		c0,0.3,0.1,0.5,0.4,0.6c0.1,0,0.4,0,0.5,0c0.1,0,0.1,0,0.1,0.1c0,0.1-0.1,0.1-0.2,0.1c-0.6,0-1.2,0-1.3,0c-0.1,0-0.7,0-1,0
		c-0.1,0-0.2,0-0.2-0.1c0,0,0-0.1,0.1-0.1c0.1,0,0.2,0,0.3,0c0.2,0,0.3-0.3,0.3-0.6c0.1-0.4,0.1-1.3,0.1-2.3V8.1z"/>
	<path id="XMLID_73_" fill="#010101" d="M175.2,4.9c2.4,0,4.1,1.5,4.1,3.9c0,2.4-1.7,4.3-4.2,4.3c-2.9,0-4.1-2.2-4.1-4.1
		C171.1,7.3,172.3,4.9,175.2,4.9 M175.5,12.7c0.9,0,2.9-0.5,2.9-3.6c0-2.5-1.5-3.9-3.2-3.9c-1.8,0-3.1,1.2-3.1,3.5
		C172.1,11.1,173.6,12.7,175.5,12.7"/>
	<path id="XMLID_68_" fill="#010101" d="M182.1,8.1c0-1.6,0-1.9,0-2.3c0-0.4-0.1-0.5-0.5-0.6c-0.1,0-0.3,0-0.4,0c0,0-0.1,0-0.1-0.1
		c0-0.1,0.1-0.1,0.2-0.1c0.5,0,1.1,0,1.2,0c0.1,0,0.9,0,1.2,0c0.7,0,1.4,0.1,1.9,0.5c0.3,0.2,0.7,0.7,0.7,1.4c0,0.8-0.3,1.6-1.3,2.4
		c0.9,1.1,1.6,2,2.2,2.7c0.6,0.6,1,0.7,1.3,0.8c0.2,0,0.3,0,0.4,0c0,0,0.1,0,0.1,0.1c0,0.1-0.1,0.1-0.3,0.1h-0.7
		c-0.6,0-0.9-0.1-1.1-0.2c-0.5-0.2-0.8-0.8-1.4-1.5c-0.4-0.6-0.9-1.3-1.1-1.6c0,0-0.1-0.1-0.1-0.1l-1.3,0c-0.1,0-0.1,0-0.1,0.1v0.3
		c0,1,0,1.8,0.1,2.3c0,0.3,0.1,0.5,0.4,0.6c0.1,0,0.4,0,0.5,0c0.1,0,0.1,0,0.1,0.1c0,0.1-0.1,0.1-0.2,0.1c-0.6,0-1.2,0-1.3,0
		c0,0-0.7,0-1,0c-0.1,0-0.2,0-0.2-0.1c0,0,0-0.1,0.1-0.1c0.1,0,0.2,0,0.3,0c0.2,0,0.3-0.3,0.3-0.6c0.1-0.4,0.1-1.3,0.1-2.3V8.1z
		 M183,9c0,0.1,0,0.1,0.1,0.1c0.2,0.1,0.6,0.2,1.1,0.2c0.3,0,0.5,0,0.8-0.2c0.4-0.3,0.6-0.8,0.6-1.6c0-1.3-0.7-2.1-1.8-2.1
		c-0.3,0-0.6,0-0.7,0.1c-0.1,0-0.1,0.1-0.1,0.1V9z"/>
	<path id="XMLID_61_" fill="#C3002F" d="M3.9,27c0-4.1,0-4.8-0.1-5.7c-0.1-0.9-0.3-1.3-1.1-1.5c-0.2-0.1-0.7-0.1-0.9-0.1
		c-0.1,0-0.2-0.1-0.2-0.2c0-0.2,0.1-0.2,0.4-0.2c1.2,0,2.8,0.1,3,0.1c0.3,0,2-0.1,3.5-0.1c2.6,0,7.4-0.2,10.5,3
		c1.3,1.4,2.5,3.6,2.5,6.7c0,3.3-1.4,5.9-2.8,7.4c-1.1,1.2-3.5,3-8,3c-1.1,0-2.5-0.1-3.7-0.2c-1.2-0.1-2-0.2-2.2-0.2
		c-0.1,0-0.5,0-1.1,0c-0.5,0-1.1,0.1-1.5,0.1C2.1,39.2,2,39.2,2,39c0-0.1,0.1-0.2,0.2-0.2c0.2,0,0.6-0.1,0.8-0.1
		c0.5-0.1,0.7-0.7,0.8-1.4c0.1-1.1,0.1-3.2,0.1-5.7V27z M6.1,29.8c0,2.8,0,5.2,0.1,5.7c0,0.7,0.1,1.7,0.3,2c0.3,0.5,1.4,1.1,4.5,1.1
		c2.4,0,4.7-0.9,6.3-2.4c1.4-1.3,2.1-3.9,2.1-6.3c0-3.3-1.4-5.5-2.5-6.6c-2.5-2.6-5.5-3-8.6-3c-0.5,0-1.5,0.1-1.7,0.2
		c-0.2,0.1-0.3,0.2-0.3,0.5c0,0.9,0,3.6,0,5.6V29.8z"/>
	<path id="XMLID_60_" fill="#C3002F" d="M32.7,31.6c0,2.5,0,4.6,0.1,5.7c0.1,0.8,0.2,1.3,1,1.4c0.4,0.1,0.9,0.1,1.2,0.1
		c0.2,0,0.2,0.1,0.2,0.2c0,0.1-0.1,0.2-0.4,0.2c-1.4,0-3.1-0.1-3.2-0.1c-0.1,0-1.8,0.1-2.6,0.1c-0.3,0-0.4-0.1-0.4-0.2
		c0-0.1,0.1-0.2,0.2-0.2c0.2,0,0.6-0.1,0.8-0.1c0.5-0.1,0.7-0.7,0.8-1.4c0.1-1.1,0.1-3.2,0.1-5.7V27c0-4.1,0-4.8-0.1-5.7
		c-0.1-0.9-0.3-1.3-0.9-1.5c-0.3-0.1-0.6-0.1-0.8-0.1c-0.1,0-0.2-0.1-0.2-0.2c0-0.2,0.1-0.2,0.4-0.2c0.9,0,2.5,0.1,2.7,0.1
		c0.1,0,1.8-0.1,2.6-0.1c0.3,0,0.4,0.1,0.4,0.2c0,0.1-0.1,0.2-0.2,0.2c-0.2,0-0.3,0-0.7,0.1c-0.7,0.1-0.9,0.6-1,1.5
		c-0.1,0.8-0.1,1.6-0.1,5.7V31.6z"/>
	<path id="XMLID_58_" fill="#C3002F" d="M43.1,38.9c-0.4-0.2-0.4-0.3-0.4-1c0-1.3,0.1-2.4,0.1-2.8c0-0.3,0.1-0.4,0.2-0.4
		c0.2,0,0.2,0.1,0.2,0.3c0,0.2,0,0.6,0.1,1c0.4,1.9,2.1,2.7,3.9,2.7c2.5,0,3.8-1.8,3.8-3.5c0-1.8-0.8-2.9-3-4.7l-1.2-1
		c-2.8-2.3-3.4-3.9-3.4-5.7c0-2.8,2.1-4.7,5.4-4.7c1,0,1.8,0.1,2.4,0.3c0.5,0.1,0.7,0.1,0.9,0.1c0.2,0,0.3,0.1,0.3,0.2
		c0,0.1-0.1,1-0.1,2.8c0,0.4-0.1,0.6-0.2,0.6c-0.2,0-0.2-0.1-0.2-0.3c0-0.3-0.2-1-0.3-1.3c-0.2-0.3-0.9-1.4-3.3-1.4
		C46.4,19.9,45,21,45,23c0,1.5,0.7,2.4,3.2,4.4l0.7,0.6c3.1,2.4,3.8,4.1,3.8,6.2c0,1.1-0.4,3.1-2.2,4.4c-1.1,0.8-2.6,1.1-4,1.1
		C45.4,39.6,44.1,39.4,43.1,38.9"/>
	<path id="XMLID_57_" fill="#C3002F" d="M62.7,36.8c-2.5-2.3-3.2-5.3-3.2-7.8c0-1.8,0.6-4.8,2.9-7.2c1.6-1.6,4-2.8,8-2.8
		c1.1,0,2.5,0.1,3.8,0.3c1,0.2,1.8,0.3,2.7,0.4c0.3,0,0.3,0.1,0.3,0.3c0,0.2-0.1,0.5-0.1,1.5c-0.1,0.9-0.1,2.3-0.1,2.7
		c0,0.4-0.1,0.6-0.2,0.6c-0.2,0-0.2-0.2-0.2-0.6c0-1-0.4-2.1-1.1-2.7c-0.9-0.8-2.9-1.5-5.3-1.5c-3.5,0-5.1,1-6,1.9
		c-1.9,1.8-2.4,4.2-2.4,6.9c0,5,3.9,9.6,9.5,9.6c2,0,3.5-0.2,4.6-1.3c0.6-0.6,0.9-1.7,1-2.2c0.1-0.3,0.1-0.4,0.3-0.4
		c0.1,0,0.2,0.2,0.2,0.4c0,0.2-0.3,2.5-0.6,3.4c-0.2,0.5-0.2,0.6-0.7,0.8c-1.1,0.4-3,0.6-4.7,0.6C67.4,39.6,64.7,38.6,62.7,36.8"/>
	<path id="XMLID_52_" fill="#C3002F" d="M93.5,19c5.9,0,10.3,3.7,10.3,9.9c0,5.9-4.2,10.8-10.5,10.8c-7.2,0-10.2-5.6-10.2-10.3
		C83.1,25,86.2,19,93.5,19 M94,38.6c2.4,0,7.3-1.4,7.3-9c0-6.3-3.8-9.7-8-9.7c-4.4,0-7.7,2.9-7.7,8.7C85.6,34.7,89.3,38.6,94,38.6"
		/>
	<path id="XMLID_50_" fill="#C3002F" d="M118.3,36c1.5-3.5,5-12.7,5.6-14.6c0.1-0.4,0.2-0.8,0.2-1c0-0.2-0.1-0.5-0.3-0.6
		c-0.3-0.1-0.7-0.1-1-0.1c-0.2,0-0.3,0-0.3-0.2c0-0.2,0.2-0.2,0.6-0.2c1.1,0,2.3,0.1,2.6,0.1c0.2,0,1.3-0.1,2.1-0.1
		c0.3,0,0.4,0.1,0.4,0.2c0,0.1-0.1,0.2-0.3,0.2c-0.2,0-0.8,0-1.3,0.3c-0.3,0.2-0.7,0.7-1.4,2.5c-0.3,0.7-1.6,3.9-2.9,7.1
		c-1.6,3.8-2.8,6.7-3.4,8c-0.7,1.6-0.8,2-1.1,2c-0.3,0-0.4-0.4-0.9-1.6l-6.4-16.1c-0.6-1.5-1-1.8-1.9-2c-0.4-0.1-0.8-0.1-1-0.1
		c-0.2,0-0.2-0.1-0.2-0.2c0-0.2,0.3-0.2,0.7-0.2c1.3,0,2.8,0.1,3.1,0.1c0.3,0,1.4-0.1,2.4-0.1c0.5,0,0.7,0.1,0.7,0.2
		c0,0.1-0.1,0.2-0.3,0.2c-0.3,0-0.8,0-1,0.1c-0.3,0.1-0.3,0.3-0.3,0.5c0,0.3,0.3,1.2,0.7,2.2L118.3,36z"/>
	<path id="XMLID_48_" fill="#C3002F" d="M134.9,27c0-4.1,0-4.8-0.1-5.7c-0.1-0.9-0.3-1.3-1.1-1.5c-0.2-0.1-0.7-0.1-0.9-0.1
		c-0.1,0-0.2-0.1-0.2-0.2c0-0.2,0.1-0.2,0.4-0.2c0.6,0,1.3,0,1.9,0l1.1,0.1c0.2,0,5.4,0,6,0c0.5,0,0.9-0.1,1.1-0.1
		c0.1,0,0.2-0.1,0.4-0.1c0.1,0,0.1,0.1,0.1,0.2c0,0.2-0.1,0.5-0.2,1.2c0,0.3-0.1,1.4-0.1,1.7c0,0.1-0.1,0.3-0.2,0.3
		c-0.2,0-0.2-0.1-0.2-0.3c0-0.2,0-0.6-0.2-0.9c-0.2-0.4-0.4-0.7-1.9-0.9c-0.4-0.1-3.3-0.1-3.6-0.1c-0.1,0-0.2,0.1-0.2,0.3v7.3
		c0,0.2,0,0.3,0.2,0.3c0.3,0,3.6,0,4.2-0.1c0.6-0.1,1-0.1,1.2-0.4c0.2-0.2,0.3-0.3,0.4-0.3c0.1,0,0.1,0.1,0.1,0.2
		c0,0.2-0.1,0.6-0.2,1.5c-0.1,0.5-0.1,1.5-0.1,1.7c0,0.2,0,0.5-0.2,0.5c-0.1,0-0.2-0.1-0.2-0.2c0-0.3,0-0.5-0.1-0.9
		c-0.1-0.4-0.3-0.8-1.4-0.9c-0.7-0.1-3.3-0.1-3.8-0.1c-0.1,0-0.2,0.1-0.2,0.2v2.3c0,0.9,0,3.9,0,4.5c0.1,1.8,0.5,2.2,3,2.2
		c0.7,0,1.8,0,2.5-0.3c0.7-0.3,1-0.8,1.2-1.9c0.1-0.3,0.1-0.4,0.2-0.4c0.2,0,0.2,0.2,0.2,0.4c0,0.2-0.2,2-0.3,2.6
		c-0.2,0.7-0.4,0.7-1.4,0.7c-2,0-3.4-0.1-4.4-0.1c-1-0.1-1.7-0.1-2-0.1c-0.1,0-0.5,0-1.1,0c-0.5,0-1.1,0.1-1.5,0.1
		c-0.3,0-0.4-0.1-0.4-0.2c0-0.1,0.1-0.2,0.2-0.2c0.2,0,0.6-0.1,0.8-0.1c0.5-0.1,0.7-0.7,0.8-1.4c0.1-1.1,0.1-3.2,0.1-5.7V27z"/>
	<path id="XMLID_43_" fill="#C3002F" d="M153.7,27c0-4.1,0-4.8-0.1-5.7c-0.1-0.9-0.3-1.3-1.1-1.5c-0.2-0.1-0.7-0.1-0.9-0.1
		c-0.1,0-0.2-0.1-0.2-0.2c0-0.2,0.1-0.2,0.4-0.2c1.2,0,2.8,0.1,3,0.1c0.3,0,2.3-0.1,3.1-0.1c1.7,0,3.4,0.2,4.8,1.2
		c0.7,0.5,1.8,1.8,1.8,3.6c0,1.9-0.8,3.9-3.2,6.1c2.2,2.8,3.9,5.1,5.5,6.7c1.4,1.5,2.6,1.8,3.2,1.9c0.5,0.1,0.9,0.1,1,0.1
		c0.1,0,0.2,0.1,0.2,0.2c0,0.2-0.2,0.2-0.6,0.2h-1.9c-1.5,0-2.1-0.1-2.8-0.5c-1.1-0.6-2.1-1.9-3.6-3.9c-1.1-1.4-2.3-3.2-2.9-3.9
		c-0.1-0.1-0.2-0.2-0.3-0.2l-3.2-0.1c-0.1,0-0.2,0.1-0.2,0.2v0.6c0,2.5,0,4.6,0.1,5.7c0.1,0.8,0.2,1.3,1,1.4
		c0.4,0.1,0.9,0.1,1.2,0.1c0.2,0,0.2,0.1,0.2,0.2c0,0.1-0.1,0.2-0.4,0.2c-1.4,0-3.1-0.1-3.2-0.1c0,0-1.7,0.1-2.5,0.1
		c-0.3,0-0.4-0.1-0.4-0.2c0-0.1,0.1-0.2,0.2-0.2c0.2,0,0.6-0.1,0.8-0.1c0.5-0.1,0.7-0.7,0.8-1.4c0.1-1.1,0.1-3.2,0.1-5.7V27z
		 M155.8,29.3c0,0.1,0.1,0.2,0.2,0.3c0.4,0.2,1.6,0.4,2.8,0.4c0.6,0,1.4-0.1,2-0.5c0.9-0.6,1.6-2,1.6-4c0-3.3-1.7-5.3-4.5-5.3
		c-0.8,0-1.5,0.1-1.8,0.2c-0.1,0.1-0.2,0.2-0.2,0.3V29.3z"/>
	<path id="XMLID_40_" fill="#C3002F" d="M178.6,32.4c0-1.4-0.3-2-0.6-2.8c-0.2-0.4-3.7-6.2-4.6-7.6c-0.7-1-1.3-1.6-1.8-1.9
		c-0.4-0.3-0.9-0.4-1.1-0.4c-0.1,0-0.3-0.1-0.3-0.2c0-0.1,0.1-0.2,0.3-0.2c0.5,0,2.5,0.1,2.6,0.1c0.2,0,1.2-0.1,2.2-0.1
		c0.3,0,0.3,0.1,0.3,0.2c0,0.1-0.2,0.1-0.4,0.2c-0.2,0.1-0.3,0.3-0.3,0.5c0,0.3,0.1,0.6,0.3,1c0.4,0.8,4.4,7.5,4.8,8.3
		c0.5-1.1,3.8-6.9,4.4-7.7c0.3-0.6,0.4-1,0.4-1.3c0-0.4-0.1-0.7-0.4-0.7c-0.2-0.1-0.4-0.1-0.4-0.3c0-0.1,0.2-0.2,0.4-0.2
		c0.7,0,1.5,0.1,1.7,0.1c0.2,0,2.1-0.1,2.6-0.1c0.2,0,0.3,0.1,0.3,0.2c0,0.1-0.1,0.2-0.3,0.2c-0.3,0-0.8,0.1-1.2,0.4
		c-0.5,0.3-0.8,0.6-1.4,1.3c-0.9,1.1-4.5,7.2-5,8.4c-0.4,0.9-0.4,1.8-0.4,2.6v2.3c0,0.4,0,1.5,0.1,2.6c0.1,0.8,0.3,1.3,1.1,1.4
		c0.4,0.1,0.9,0.1,1.2,0.1c0.2,0,0.2,0.1,0.2,0.2c0,0.1-0.1,0.2-0.4,0.2c-1.4,0-3.1-0.1-3.2-0.1c-0.1,0-1.8,0.1-2.6,0.1
		c-0.3,0-0.4-0.1-0.4-0.2c0-0.1,0.1-0.2,0.2-0.2c0.2,0,0.6-0.1,0.8-0.1c0.5-0.1,0.8-0.7,0.8-1.4c0.1-1.1,0.1-2.2,0.1-2.6V32.4z"/>
</g>
</svg>
