<?xml version="1.0" encoding="utf-8"?>
<!-- Generator: Adobe Illustrator 19.0.0, SVG Export Plug-In . SVG Version: 6.00 Build 0)  -->
<!DOCTYPE svg PUBLIC "-//W3C//DTD SVG 1.1//EN" "http://www.w3.org/Graphics/SVG/1.1/DTD/svg11.dtd">
<svg version="1.1" id="Layer_1" xmlns="http://www.w3.org/2000/svg" xmlns:xlink="http://www.w3.org/1999/xlink" x="0px" y="0px"
	 viewBox="18 6 85 40" enable-background="new 18 6 85 40" xml:space="preserve">
<path fill="#010101" d="M88.1,11.8c-6.9,0-11,14.8-11,14.8c-2.7,7.8-4.3,9.9-4.3,9.9c-2.2,3.3-5,4-7,4.1c-2.5,0-4.2-1.9-4.2-1.9
	c6,3.7,9.2-4.9,10-6.7c0.7-1.8,4.6-12.2,4.6-12.2s3.2-8,10-8.1C86.2,11.6,87.1,11.6,88.1,11.8 M32.9,40.2c6.9,0,11-14.8,11-14.8
	c2.3-6.7,3.8-9.2,4.2-9.7c3-4.4,8-3.8,8-3.8s1.7,0,3.4,1.5c-6.3-3.4-9.3,4.9-10,6.7c-0.7,1.8-4.6,12.2-4.6,12.2s-3.2,8-10,8.1
	C34.8,40.4,33.8,40.4,32.9,40.2 M103,11.8c-6.9,0-11,14.8-11,14.8c-2.7,7.8-4.3,9.9-4.3,9.9c-2.2,3.3-5,4-7,4.1
	c-2.5,0-4.2-1.9-4.2-1.9c6,3.7,9.2-4.9,10-6.7c0.7-1.8,4.6-12.2,4.6-12.2s3.2-8,10-8.1C101.1,11.6,102.1,11.6,103,11.8 M18,40.2
	c6.9,0,11-14.8,11-14.8c2.3-6.7,3.8-9.2,4.2-9.7c3-4.4,8-3.8,8-3.8s1.7,0,3.4,1.5c-6.3-3.4-9.3,4.9-10,6.7
	C33.9,21.9,30,32.3,30,32.3s-3.2,8-10,8.1C19.9,40.4,18.9,40.4,18,40.2"/>
<path id="XMLID_3_" fill="#C3002F" d="M56.1,12c0,0-5-0.6-8,3.9c0,0,2.2-4.5,8.4-4.5c0,0,5.8,0.1,8.8,4.5c0,0,1.7,1.8,4.4,9.7
	c0,0,4.4,14.6,11.1,14.9c0,0-0.6,0.2-1.9,0.2c-6.9-0.1-10.1-8.2-10.1-8.2S64.9,22,64.2,20.2c-0.8-1.8-3.8-8.2-8.5-8.2"/>
<path id="XMLID_1_" fill="#C3002F" d="M41.2,12c0,0-5-0.6-8,3.9c0,0,2.2-4.5,8.4-4.5c0,0,5.8,0.1,8.8,4.5c0,0,1.7,1.8,4.4,9.7
	c0,0,4.4,14.6,11.1,14.9c0,0-0.6,0.2-1.9,0.2c-6.9-0.1-10.1-8.2-10.1-8.2S50,22,49.2,20.2c-0.7-1.8-3.8-8.2-8.5-8.2"/>
</svg>
