<?xml version="1.0" encoding="utf-8"?>
<!-- Generator: Adobe Illustrator 19.0.0, SVG Export Plug-In . SVG Version: 6.00 Build 0)  -->
<!DOCTYPE svg PUBLIC "-//W3C//DTD SVG 1.1//EN" "http://www.w3.org/Graphics/SVG/1.1/DTD/svg11.dtd">
<svg version="1.1" id="Layer_1" xmlns="http://www.w3.org/2000/svg" xmlns:xlink="http://www.w3.org/1999/xlink" x="0px" y="0px"
	 viewBox="0 0 190 45" enable-background="new 0 0 190 45" xml:space="preserve">
<g id="XMLID_64_">
	<path id="XMLID_108_" d="M4,35.5c0,1,0,1.8,0.1,2.2c0,0.3,0.1,0.5,0.4,0.6c0.1,0,0.4,0,0.5,0c0.1,0,0.1,0,0.1,0.1
		c0,0.1-0.1,0.1-0.2,0.1c-0.6,0-1.2,0-1.2,0c-0.1,0-0.7,0-1,0c-0.1,0-0.2,0-0.2-0.1c0,0,0-0.1,0.1-0.1c0.1,0,0.2,0,0.3,0
		c0.2,0,0.3-0.3,0.3-0.6c0.1-0.4,0.1-1.2,0.1-2.2v-1.8c0-1.6,0-1.9,0-2.2C3.1,31.2,3,31,2.8,31c-0.1,0-0.2,0-0.3,0
		c0,0-0.1,0-0.1-0.1c0-0.1,0.1-0.1,0.2-0.1c0.3,0,1,0,1,0c0.1,0,0.7,0,1,0c0.1,0,0.2,0,0.2,0.1c0,0,0,0.1-0.1,0.1
		c-0.1,0-0.1,0-0.3,0c-0.3,0-0.4,0.2-0.4,0.6c0,0.3,0,0.6,0,2.2V35.5z"/>
	<path id="XMLID_106_" d="M9.8,37.1c0,0.8,0.1,1.1,0.4,1.2c0.2,0.1,0.4,0.1,0.5,0.1c0.1,0,0.1,0,0.1,0.1c0,0.1-0.1,0.1-0.2,0.1
		c-0.6,0-1,0-1.1,0c-0.1,0-0.5,0-1,0c-0.1,0-0.2,0-0.2-0.1c0,0,0-0.1,0.1-0.1c0.1,0,0.3,0,0.4-0.1c0.3-0.1,0.3-0.4,0.3-1.3l0-5.8
		c0-0.4,0-0.5,0.1-0.5c0.1,0,0.3,0.2,0.4,0.3c0.2,0.2,1.7,1.8,3.2,3.5c1,1.1,2.1,2.3,2.4,2.6l-0.1-5.1c0-0.7-0.1-0.9-0.4-1
		c-0.2,0-0.4-0.1-0.5-0.1c-0.1,0-0.1,0-0.1-0.1c0-0.1,0.1-0.1,0.2-0.1c0.5,0,0.9,0,1.1,0c0.1,0,0.4,0,0.9,0c0.1,0,0.2,0,0.2,0.1
		c0,0,0,0.1-0.1,0.1c-0.1,0-0.1,0-0.2,0c-0.3,0.1-0.4,0.3-0.4,0.9l0,5.9c0,0.7,0,0.7-0.1,0.7c-0.1,0-0.2-0.1-0.7-0.6
		c-0.1-0.1-1.6-1.6-2.6-2.7c-1.2-1.3-2.3-2.5-2.6-2.9L9.8,37.1z"/>
	<path id="XMLID_104_" d="M20.4,38.3c-0.1-0.1-0.2-0.1-0.2-0.4c0-0.5,0-0.9,0.1-1.1c0-0.1,0-0.2,0.1-0.2c0.1,0,0.1,0,0.1,0.1
		c0,0.1,0,0.2,0,0.4c0.2,0.7,0.8,1,1.5,1c1,0,1.5-0.7,1.5-1.3c0-0.7-0.3-1.1-1.2-1.8l-0.5-0.4c-1.1-0.9-1.3-1.5-1.3-2.2
		c0-1.1,0.8-1.8,2.1-1.8c0.4,0,0.7,0,0.9,0.1c0.2,0,0.3,0.1,0.4,0.1c0.1,0,0.1,0,0.1,0.1c0,0.1,0,0.4,0,1.1c0,0.2,0,0.2-0.1,0.2
		c-0.1,0-0.1-0.1-0.1-0.1c0-0.1-0.1-0.4-0.1-0.5c-0.1-0.1-0.3-0.5-1.3-0.5c-0.7,0-1.2,0.4-1.2,1.2c0,0.6,0.3,0.9,1.2,1.7l0.3,0.2
		c1.2,0.9,1.5,1.6,1.5,2.4c0,0.4-0.2,1.2-0.9,1.7c-0.4,0.3-1,0.4-1.5,0.4C21.3,38.6,20.9,38.5,20.4,38.3z"/>
	<path id="XMLID_102_" d="M31,35.5c0,1,0,1.8,0.1,2.2c0,0.3,0.1,0.5,0.4,0.6c0.1,0,0.4,0,0.5,0c0.1,0,0.1,0,0.1,0.1
		c0,0.1,0,0.1-0.2,0.1c-0.6,0-1.2,0-1.2,0c-0.1,0-0.7,0-1,0c-0.1,0-0.2,0-0.2-0.1c0,0,0-0.1,0.1-0.1c0.1,0,0.2,0,0.3,0
		c0.2,0,0.3-0.3,0.3-0.6c0-0.4,0-1.2,0-2.2v-4.3l-1.5,0c-0.6,0-0.9,0.1-1,0.3c-0.1,0.2-0.1,0.2-0.2,0.3c0,0.1-0.1,0.1-0.1,0.1
		c0,0-0.1,0-0.1-0.1c0-0.1,0.2-1,0.2-1.1c0-0.1,0.1-0.2,0.1-0.2c0.1,0,0.2,0.1,0.4,0.1c0.3,0,0.7,0.1,0.8,0.1h3.8
		c0.3,0,0.6,0,0.7-0.1c0.2,0,0.2-0.1,0.3-0.1c0.1,0,0.1,0.1,0.1,0.1c0,0.3,0,1,0,1.1c0,0.1,0,0.1-0.1,0.1c-0.1,0-0.1,0-0.1-0.2
		l0-0.1c0-0.3-0.3-0.5-1.2-0.6l-1.3,0V35.5z"/>
	<path id="XMLID_100_" d="M38.6,35.5c0,1,0,1.8,0.1,2.2c0,0.3,0.1,0.5,0.4,0.6c0.1,0,0.4,0,0.5,0c0.1,0,0.1,0,0.1,0.1
		c0,0.1,0,0.1-0.2,0.1c-0.6,0-1.2,0-1.2,0c-0.1,0-0.7,0-1,0c-0.1,0-0.2,0-0.2-0.1c0,0,0-0.1,0.1-0.1c0.1,0,0.2,0,0.3,0
		c0.2,0,0.3-0.3,0.3-0.6c0.1-0.4,0.1-1.2,0.1-2.2v-1.8c0-1.6,0-1.9,0-2.2c0-0.3-0.1-0.5-0.3-0.6c-0.1,0-0.2,0-0.3,0
		c0,0-0.1,0-0.1-0.1c0-0.1,0.1-0.1,0.2-0.1c0.3,0,1,0,1,0c0.1,0,0.7,0,1,0c0.1,0,0.2,0,0.2,0.1c0,0,0,0.1-0.1,0.1
		c-0.1,0-0.1,0-0.3,0c-0.3,0-0.4,0.2-0.4,0.6c0,0.3,0,0.6,0,2.2V35.5z"/>
	<path id="XMLID_98_" d="M46.3,35.5c0,1,0,1.8,0.1,2.2c0,0.3,0.1,0.5,0.4,0.6c0.1,0,0.4,0,0.5,0c0.1,0,0.1,0,0.1,0.1
		c0,0.1,0,0.1-0.2,0.1c-0.6,0-1.2,0-1.2,0c-0.1,0-0.7,0-1,0c-0.1,0-0.2,0-0.2-0.1c0,0,0-0.1,0.1-0.1c0.1,0,0.2,0,0.3,0
		c0.2,0,0.3-0.3,0.3-0.6c0-0.4,0-1.2,0-2.2v-4.3l-1.5,0c-0.6,0-0.9,0.1-1,0.3c-0.1,0.2-0.1,0.2-0.2,0.3c0,0.1-0.1,0.1-0.1,0.1
		c0,0-0.1,0-0.1-0.1c0-0.1,0.2-1,0.2-1.1c0-0.1,0.1-0.2,0.1-0.2c0.1,0,0.2,0.1,0.4,0.1c0.3,0,0.7,0.1,0.8,0.1H48
		c0.3,0,0.6,0,0.7-0.1c0.2,0,0.2-0.1,0.3-0.1c0.1,0,0.1,0.1,0.1,0.1c0,0.3,0,1,0,1.1c0,0.1,0,0.1-0.1,0.1c-0.1,0-0.1,0-0.1-0.2
		l0-0.1c0-0.3-0.3-0.5-1.2-0.6l-1.3,0V35.5z"/>
	<path id="XMLID_96_" d="M52.5,33.7c0-1.6,0-1.9,0-2.2c0-0.3-0.1-0.5-0.4-0.6c-0.1,0-0.3,0-0.3,0c0,0-0.1,0-0.1-0.1
		c0-0.1,0.1-0.1,0.2-0.1c0.5,0,1.1,0,1.2,0c0.1,0,0.7,0,1,0c0.1,0,0.2,0,0.2,0.1c0,0,0,0.1-0.1,0.1c-0.1,0-0.1,0-0.3,0
		c-0.3,0-0.4,0.2-0.4,0.6c0,0.3,0,0.6,0,2.2v1.4c0,1.5,0.3,2.1,0.8,2.5c0.5,0.5,1,0.6,1.5,0.6c0.6,0,1.2-0.3,1.6-0.7
		c0.5-0.6,0.6-1.4,0.6-2.5v-1.3c0-1.6,0-1.9,0-2.2c0-0.3-0.1-0.5-0.4-0.6c-0.1,0-0.3,0-0.3,0c0,0-0.1,0-0.1-0.1
		c0-0.1,0.1-0.1,0.2-0.1c0.5,0,1,0,1.1,0c0.1,0,0.5,0,0.9,0c0.1,0,0.2,0,0.2,0.1c0,0,0,0.1-0.1,0.1c-0.1,0-0.1,0-0.3,0
		c-0.3,0.1-0.4,0.2-0.4,0.6c0,0.3,0,0.6,0,2.2v1.1c0,1.1-0.1,2.3-0.9,3c-0.7,0.6-1.5,0.7-2.1,0.7c-0.3,0-1.4,0-2.1-0.7
		c-0.5-0.5-0.9-1.2-0.9-2.7V33.7z"/>
	<path id="XMLID_94_" d="M65.6,35.5c0,1,0,1.8,0.1,2.2c0,0.3,0.1,0.5,0.4,0.6c0.1,0,0.4,0,0.5,0c0.1,0,0.1,0,0.1,0.1
		c0,0.1-0.1,0.1-0.2,0.1c-0.6,0-1.2,0-1.2,0c-0.1,0-0.7,0-1,0c-0.1,0-0.2,0-0.2-0.1c0,0,0-0.1,0.1-0.1c0.1,0,0.2,0,0.3,0
		c0.2,0,0.3-0.3,0.3-0.6c0.1-0.4,0.1-1.2,0.1-2.2v-4.3l-1.5,0c-0.6,0-0.9,0.1-1,0.3c-0.1,0.2-0.1,0.2-0.2,0.3C62,32,62,32,61.9,32
		c0,0-0.1,0-0.1-0.1c0-0.1,0.2-1,0.2-1.1c0-0.1,0.1-0.2,0.1-0.2c0.1,0,0.2,0.1,0.4,0.1c0.3,0,0.7,0.1,0.8,0.1h3.8
		c0.3,0,0.6,0,0.7-0.1c0.2,0,0.2-0.1,0.3-0.1c0.1,0,0.1,0.1,0.1,0.1c0,0.3,0,1,0,1.1c0,0.1,0,0.1-0.1,0.1c-0.1,0-0.1,0-0.1-0.2
		l0-0.1c0-0.3-0.3-0.5-1.2-0.6l-1.3,0V35.5z"/>
	<path id="XMLID_92_" d="M72.4,33.7c0-1.6,0-1.9,0-2.2c0-0.3-0.1-0.5-0.4-0.6c-0.1,0-0.3,0-0.3,0c0,0-0.1,0-0.1-0.1
		c0-0.1,0.1-0.1,0.2-0.1c0.2,0,0.5,0,0.7,0l0.4,0c0.1,0,2.1,0,2.3,0c0.2,0,0.4,0,0.4-0.1c0.1,0,0.1-0.1,0.1-0.1c0,0,0,0,0,0.1
		c0,0.1-0.1,0.2-0.1,0.5c0,0.1,0,0.5-0.1,0.7c0,0.1,0,0.1-0.1,0.1c-0.1,0-0.1,0-0.1-0.1c0-0.1,0-0.2-0.1-0.4
		c-0.1-0.2-0.2-0.3-0.7-0.3c-0.2,0-1.3,0-1.4,0c0,0-0.1,0-0.1,0.1v2.8c0,0.1,0,0.1,0.1,0.1c0.1,0,1.4,0,1.6,0c0.2,0,0.4,0,0.5-0.1
		c0.1-0.1,0.1-0.1,0.2-0.1c0,0,0.1,0,0.1,0.1c0,0.1-0.1,0.2-0.1,0.6c0,0.2,0,0.6,0,0.6c0,0.1,0,0.2-0.1,0.2c-0.1,0-0.1,0-0.1-0.1
		c0-0.1,0-0.2,0-0.3c0-0.1-0.1-0.3-0.5-0.4c-0.3,0-1.3-0.1-1.4-0.1c-0.1,0-0.1,0-0.1,0.1v0.9c0,0.3,0,1.5,0,1.7
		c0,0.7,0.2,0.8,1.2,0.8c0.3,0,0.7,0,1-0.1c0.3-0.1,0.4-0.3,0.5-0.7c0-0.1,0-0.2,0.1-0.2c0.1,0,0.1,0.1,0.1,0.2c0,0.1-0.1,0.8-0.1,1
		c-0.1,0.3-0.2,0.3-0.5,0.3c-0.8,0-1.3,0-1.7,0c-0.4,0-0.6,0-0.8,0c0,0-0.2,0-0.4,0c-0.2,0-0.4,0-0.6,0c-0.1,0-0.2,0-0.2-0.1
		c0,0,0-0.1,0.1-0.1c0.1,0,0.2,0,0.3,0c0.2,0,0.3-0.3,0.3-0.6c0.1-0.4,0.1-1.2,0.1-2.2V33.7z"/>
	<path id="XMLID_90_" d="M85.7,33.7c0-1.6,0-1.9,0-2.2c0-0.3-0.1-0.5-0.4-0.6c-0.1,0-0.3,0-0.3,0c0,0-0.1,0-0.1-0.1
		c0-0.1,0-0.1,0.2-0.1c0.2,0,0.5,0,0.7,0l0.4,0c0.2,0,2.3,0,2.5,0c0.2,0,0.4,0,0.4,0c0.1,0,0.1-0.1,0.1-0.1c0,0,0.1,0,0.1,0.1
		c0,0.1,0,0.2-0.1,0.5c0,0.1,0,0.5,0,0.7c0,0.1,0,0.1-0.1,0.1c-0.1,0-0.1,0-0.1-0.1c0-0.1,0-0.3-0.1-0.4c-0.1-0.1-0.3-0.3-0.7-0.3
		l-1.6,0c-0.1,0-0.1,0-0.1,0.1v2.8c0,0.1,0,0.1,0.1,0.1l1.3,0c0.2,0,0.3,0,0.5,0c0.2,0,0.4-0.1,0.5-0.2c0-0.1,0.1-0.1,0.1-0.1
		c0,0,0.1,0,0.1,0.1c0,0.1-0.1,0.2-0.1,0.6c0,0.2,0,0.6,0,0.7c0,0.1,0,0.2-0.1,0.2c-0.1,0-0.1,0-0.1-0.1c0-0.1,0-0.2-0.1-0.4
		c-0.1-0.1-0.2-0.3-0.5-0.4c-0.3,0-1.4,0-1.5,0c-0.1,0-0.1,0-0.1,0.1v0.9c0,1,0,1.8,0.1,2.2c0,0.3,0.1,0.5,0.4,0.6
		c0.1,0,0.4,0,0.5,0c0.1,0,0.1,0,0.1,0.1c0,0.1-0.1,0.1-0.2,0.1c-0.6,0-1.2,0-1.2,0c-0.1,0-0.7,0-1,0c-0.1,0-0.2,0-0.2-0.1
		c0,0,0-0.1,0.1-0.1c0.1,0,0.2,0,0.3,0c0.2,0,0.3-0.3,0.3-0.6c0.1-0.4,0.1-1.2,0.1-2.2V33.7z"/>
	<path id="XMLID_87_" d="M96.5,30.6c2.3,0,4,1.4,4,3.8c0,2.3-1.6,4.1-4,4.1c-2.8,0-3.9-2.2-3.9-4C92.5,33,93.7,30.6,96.5,30.6z
		 M96.7,38.2c0.9,0,2.8-0.5,2.8-3.5c0-2.4-1.5-3.7-3.1-3.7c-1.7,0-3,1.1-3,3.3C93.5,36.7,94.9,38.2,96.7,38.2z"/>
	<path id="XMLID_84_" d="M104.1,33.7c0-1.6,0-1.9,0-2.2c0-0.3-0.1-0.5-0.4-0.6c-0.1,0-0.3,0-0.3,0c0,0-0.1,0-0.1-0.1
		c0-0.1,0.1-0.1,0.2-0.1c0.5,0,1.1,0,1.1,0c0.1,0,0.9,0,1.2,0c0.6,0,1.3,0.1,1.9,0.4c0.3,0.2,0.7,0.7,0.7,1.4c0,0.8-0.3,1.5-1.2,2.3
		c0.8,1.1,1.5,2,2.1,2.6c0.5,0.6,1,0.7,1.2,0.7c0.2,0,0.3,0,0.4,0c0.1,0,0.1,0,0.1,0.1c0,0.1-0.1,0.1-0.2,0.1h-0.7
		c-0.6,0-0.8,0-1.1-0.2c-0.4-0.2-0.8-0.7-1.4-1.5c-0.4-0.6-0.9-1.2-1.1-1.5c0,0-0.1-0.1-0.1-0.1l-1.2,0c-0.1,0-0.1,0-0.1,0.1v0.2
		c0,1,0,1.8,0,2.2c0,0.3,0.1,0.5,0.4,0.6c0.1,0,0.4,0,0.5,0c0.1,0,0.1,0,0.1,0.1c0,0.1-0.1,0.1-0.2,0.1c-0.6,0-1.2,0-1.2,0
		c0,0-0.7,0-1,0c-0.1,0-0.2,0-0.2-0.1c0,0,0-0.1,0.1-0.1c0.1,0,0.2,0,0.3,0c0.2,0,0.3-0.3,0.3-0.6c0.1-0.4,0.1-1.2,0.1-2.2V33.7z
		 M104.9,34.6c0,0,0,0.1,0.1,0.1c0.2,0.1,0.6,0.2,1.1,0.2c0.2,0,0.5,0,0.8-0.2c0.4-0.2,0.6-0.8,0.6-1.6c0-1.3-0.7-2-1.8-2
		c-0.3,0-0.6,0-0.7,0.1c0,0-0.1,0.1-0.1,0.1V34.6z"/>
	<path id="XMLID_81_" d="M118.9,33.7c0-1.6,0-1.9,0-2.2c0-0.3-0.1-0.5-0.4-0.6c-0.1,0-0.3,0-0.3,0c0,0-0.1,0-0.1-0.1
		c0-0.1,0-0.1,0.2-0.1c0.5,0,1.1,0,1.1,0c0.1,0,0.9,0,1.2,0c0.6,0,1.3,0.1,1.9,0.4c0.3,0.2,0.7,0.7,0.7,1.4c0,0.8-0.3,1.5-1.2,2.3
		c0.8,1.1,1.5,2,2.1,2.6c0.5,0.6,1,0.7,1.2,0.7c0.2,0,0.3,0,0.4,0c0.1,0,0.1,0,0.1,0.1c0,0.1-0.1,0.1-0.2,0.1h-0.7
		c-0.6,0-0.8,0-1.1-0.2c-0.4-0.2-0.8-0.7-1.4-1.5c-0.4-0.6-0.9-1.2-1.1-1.5c0,0-0.1-0.1-0.1-0.1l-1.2,0c0,0-0.1,0-0.1,0.1v0.2
		c0,1,0,1.8,0.1,2.2c0,0.3,0.1,0.5,0.4,0.6c0.1,0,0.4,0,0.5,0c0.1,0,0.1,0,0.1,0.1c0,0.1,0,0.1-0.2,0.1c-0.6,0-1.2,0-1.2,0
		c0,0-0.7,0-1,0c-0.1,0-0.2,0-0.2-0.1c0,0,0-0.1,0.1-0.1c0.1,0,0.2,0,0.3,0c0.2,0,0.3-0.3,0.3-0.6c0-0.4,0-1.2,0-2.2V33.7z
		 M119.7,34.6c0,0,0,0.1,0.1,0.1c0.2,0.1,0.6,0.2,1.1,0.2c0.2,0,0.5,0,0.8-0.2c0.4-0.2,0.6-0.8,0.6-1.6c0-1.3-0.7-2-1.8-2
		c-0.3,0-0.6,0-0.7,0.1c-0.1,0-0.1,0.1-0.1,0.1V34.6z"/>
	<path id="XMLID_79_" d="M128.5,33.7c0-1.6,0-1.9,0-2.2c0-0.3-0.1-0.5-0.4-0.6c-0.1,0-0.3,0-0.3,0c0,0-0.1,0-0.1-0.1
		c0-0.1,0.1-0.1,0.2-0.1c0.2,0,0.5,0,0.7,0l0.4,0c0.1,0,2.1,0,2.3,0c0.2,0,0.4,0,0.4-0.1c0.1,0,0.1-0.1,0.1-0.1c0,0,0,0,0,0.1
		c0,0.1,0,0.2-0.1,0.5c0,0.1,0,0.5,0,0.7c0,0.1,0,0.1-0.1,0.1c-0.1,0-0.1,0-0.1-0.1c0-0.1,0-0.2-0.1-0.4c-0.1-0.2-0.2-0.3-0.7-0.3
		c-0.2,0-1.3,0-1.4,0c0,0-0.1,0-0.1,0.1v2.8c0,0.1,0,0.1,0.1,0.1c0.1,0,1.4,0,1.6,0c0.2,0,0.4,0,0.5-0.1c0.1-0.1,0.1-0.1,0.2-0.1
		c0,0,0.1,0,0.1,0.1c0,0.1-0.1,0.2-0.1,0.6c0,0.2,0,0.6,0,0.6c0,0.1,0,0.2-0.1,0.2c-0.1,0-0.1,0-0.1-0.1c0-0.1,0-0.2,0-0.3
		c0-0.1-0.1-0.3-0.5-0.4c-0.3,0-1.3-0.1-1.5-0.1c-0.1,0-0.1,0-0.1,0.1v0.9c0,0.3,0,1.5,0,1.7c0,0.7,0.2,0.8,1.2,0.8
		c0.3,0,0.7,0,1-0.1c0.3-0.1,0.4-0.3,0.5-0.7c0-0.1,0-0.2,0.1-0.2c0.1,0,0.1,0.1,0.1,0.2c0,0.1-0.1,0.8-0.1,1
		c-0.1,0.3-0.2,0.3-0.5,0.3c-0.8,0-1.3,0-1.7,0c-0.4,0-0.6,0-0.8,0c0,0-0.2,0-0.4,0c-0.2,0-0.4,0-0.6,0c-0.1,0-0.2,0-0.2-0.1
		c0,0,0-0.1,0.1-0.1c0.1,0,0.2,0,0.3,0c0.2,0,0.3-0.3,0.3-0.6c0-0.4,0-1.2,0-2.2V33.7z"/>
	<path id="XMLID_77_" d="M135.9,38.3c-0.1-0.1-0.2-0.1-0.2-0.4c0-0.5,0-0.9,0.1-1.1c0-0.1,0-0.2,0.1-0.2c0.1,0,0.1,0,0.1,0.1
		c0,0.1,0,0.2,0,0.4c0.2,0.7,0.8,1,1.5,1c1,0,1.5-0.7,1.5-1.3c0-0.7-0.3-1.1-1.2-1.8l-0.5-0.4c-1.1-0.9-1.3-1.5-1.3-2.2
		c0-1.1,0.8-1.8,2.1-1.8c0.4,0,0.7,0,0.9,0.1c0.2,0,0.3,0.1,0.4,0.1c0.1,0,0.1,0,0.1,0.1c0,0.1,0,0.4,0,1.1c0,0.2,0,0.2-0.1,0.2
		c-0.1,0-0.1-0.1-0.1-0.1c0-0.1-0.1-0.4-0.1-0.5c-0.1-0.1-0.3-0.5-1.3-0.5c-0.7,0-1.2,0.4-1.2,1.2c0,0.6,0.3,0.9,1.2,1.7l0.3,0.2
		c1.2,0.9,1.5,1.6,1.5,2.4c0,0.4-0.2,1.2-0.9,1.7c-0.4,0.3-1,0.4-1.5,0.4C136.8,38.6,136.4,38.5,135.9,38.3z"/>
	<path id="XMLID_75_" d="M144.3,33.7c0-1.6,0-1.9,0-2.2c0-0.3-0.1-0.5-0.4-0.6c-0.1,0-0.3,0-0.3,0c0,0-0.1,0-0.1-0.1
		c0-0.1,0.1-0.1,0.2-0.1c0.2,0,0.5,0,0.7,0l0.4,0c0.1,0,2.1,0,2.3,0c0.2,0,0.4,0,0.4-0.1c0,0,0.1-0.1,0.1-0.1c0,0,0,0,0,0.1
		c0,0.1-0.1,0.2-0.1,0.5c0,0.1,0,0.5-0.1,0.7c0,0.1,0,0.1-0.1,0.1c-0.1,0-0.1,0-0.1-0.1c0-0.1,0-0.2-0.1-0.4
		c-0.1-0.2-0.2-0.3-0.7-0.3c-0.2,0-1.3,0-1.4,0c0,0-0.1,0-0.1,0.1v2.8c0,0.1,0,0.1,0.1,0.1c0.1,0,1.4,0,1.6,0c0.2,0,0.4,0,0.5-0.1
		c0.1-0.1,0.1-0.1,0.2-0.1c0,0,0.1,0,0.1,0.1c0,0.1-0.1,0.2-0.1,0.6c0,0.2,0,0.6,0,0.6c0,0.1,0,0.2-0.1,0.2c0,0-0.1,0-0.1-0.1
		c0-0.1,0-0.2,0-0.3c0-0.1-0.1-0.3-0.5-0.4c-0.3,0-1.3-0.1-1.5-0.1c-0.1,0-0.1,0-0.1,0.1v0.9c0,0.3,0,1.5,0,1.7
		c0,0.7,0.2,0.8,1.2,0.8c0.3,0,0.7,0,1-0.1c0.3-0.1,0.4-0.3,0.5-0.7c0-0.1,0-0.2,0.1-0.2c0.1,0,0.1,0.1,0.1,0.2c0,0.1-0.1,0.8-0.1,1
		c-0.1,0.3-0.2,0.3-0.5,0.3c-0.8,0-1.3,0-1.7,0c-0.4,0-0.6,0-0.8,0c0,0-0.2,0-0.4,0c-0.2,0-0.4,0-0.6,0c-0.1,0-0.2,0-0.2-0.1
		c0,0,0-0.1,0.1-0.1c0.1,0,0.2,0,0.3,0c0.2,0,0.3-0.3,0.3-0.6c0-0.4,0-1.2,0-2.2V33.7z"/>
	<path id="XMLID_72_" d="M153.9,31c0.1-0.3,0.2-0.4,0.2-0.4c0.1,0,0.1,0.1,0.2,0.4c0.2,0.4,1.7,4.6,2.4,6.1c0.4,0.9,0.7,1.1,0.9,1.1
		c0.2,0.1,0.3,0.1,0.4,0.1c0.1,0,0.1,0,0.1,0.1c0,0.1-0.1,0.1-0.2,0.1c-0.2,0-0.9,0-1.6,0c-0.2,0-0.3,0-0.3-0.1c0,0,0-0.1,0.1-0.1
		c0.1,0,0.1-0.1,0.1-0.3l-0.9-2.5c0,0,0-0.1-0.1-0.1h-2.2c0,0-0.1,0-0.1,0.1l-0.6,1.8c-0.1,0.3-0.1,0.5-0.1,0.7
		c0,0.2,0.2,0.3,0.4,0.3h0.1c0.1,0,0.1,0,0.1,0.1c0,0.1-0.1,0.1-0.2,0.1c-0.2,0-0.7,0-0.8,0c-0.1,0-0.7,0-1.1,0
		c-0.1,0-0.2,0-0.2-0.1c0,0,0-0.1,0.1-0.1c0.1,0,0.2,0,0.3,0c0.5-0.1,0.7-0.4,0.9-1L153.9,31z M154.9,35.1
		C155,35.1,155,35.1,154.9,35.1l-0.9-2.8c-0.1-0.2-0.1-0.2-0.2,0L153,35c0,0,0,0.1,0,0.1H154.9z"/>
	<path id="XMLID_69_" d="M161.5,33.7c0-1.6,0-1.9,0-2.2c0-0.3-0.1-0.5-0.4-0.6c-0.1,0-0.3,0-0.3,0c0,0-0.1,0-0.1-0.1
		c0-0.1,0-0.1,0.2-0.1c0.5,0,1.1,0,1.1,0c0.1,0,0.9,0,1.2,0c0.6,0,1.3,0.1,1.9,0.4c0.3,0.2,0.7,0.7,0.7,1.4c0,0.8-0.3,1.5-1.2,2.3
		c0.8,1.1,1.5,2,2.1,2.6c0.5,0.6,1,0.7,1.2,0.7c0.2,0,0.3,0,0.4,0c0.1,0,0.1,0,0.1,0.1c0,0.1-0.1,0.1-0.2,0.1h-0.7
		c-0.6,0-0.8,0-1.1-0.2c-0.4-0.2-0.8-0.7-1.4-1.5c-0.4-0.6-0.9-1.2-1.1-1.5c0,0-0.1-0.1-0.1-0.1l-1.2,0c0,0-0.1,0-0.1,0.1v0.2
		c0,1,0,1.8,0.1,2.2c0,0.3,0.1,0.5,0.4,0.6c0.1,0,0.4,0,0.5,0c0.1,0,0.1,0,0.1,0.1c0,0.1,0,0.1-0.2,0.1c-0.6,0-1.2,0-1.2,0
		c0,0-0.6,0-1,0c-0.1,0-0.2,0-0.2-0.1c0,0,0-0.1,0.1-0.1c0.1,0,0.2,0,0.3,0c0.2,0,0.3-0.3,0.3-0.6c0.1-0.4,0.1-1.2,0.1-2.2V33.7z
		 M162.3,34.6c0,0,0,0.1,0.1,0.1c0.2,0.1,0.6,0.2,1.1,0.2c0.2,0,0.5,0,0.8-0.2c0.4-0.2,0.6-0.8,0.6-1.6c0-1.3-0.7-2-1.8-2
		c-0.3,0-0.6,0-0.7,0.1c0,0-0.1,0.1-0.1,0.1V34.6z"/>
	<path id="XMLID_67_" d="M171.3,37.5c-1-0.9-1.2-2-1.2-3c0-0.7,0.2-1.9,1.1-2.8c0.6-0.6,1.5-1.1,3.1-1.1c0.4,0,1,0,1.5,0.1
		c0.4,0.1,0.7,0.1,1,0.2c0.1,0,0.1,0.1,0.1,0.1c0,0.1,0,0.2,0,0.6c0,0.3,0,0.9,0,1c0,0.2,0,0.2-0.1,0.2c-0.1,0-0.1-0.1-0.1-0.2
		c0-0.4-0.2-0.8-0.4-1c-0.4-0.3-1.1-0.6-2-0.6c-1.3,0-2,0.4-2.3,0.7c-0.7,0.7-0.9,1.6-0.9,2.6c0,1.9,1.5,3.7,3.7,3.7
		c0.8,0,1.4-0.1,1.8-0.5c0.2-0.2,0.3-0.7,0.4-0.9c0-0.1,0-0.2,0.1-0.2c0,0,0.1,0.1,0.1,0.2c0,0.1-0.1,1-0.2,1.3
		c-0.1,0.2-0.1,0.2-0.3,0.3c-0.4,0.2-1.2,0.2-1.8,0.2C173.1,38.6,172.1,38.2,171.3,37.5z"/>
	<path id="XMLID_65_" d="M187.4,35.5c0,1,0,1.8,0.1,2.2c0,0.3,0.1,0.5,0.4,0.6c0.1,0,0.4,0,0.5,0c0.1,0,0.1,0,0.1,0.1
		c0,0.1,0,0.1-0.2,0.1c-0.6,0-1.2,0-1.2,0c-0.1,0-0.7,0-1,0c-0.1,0-0.2,0-0.2-0.1c0,0,0-0.1,0.1-0.1c0.1,0,0.2,0,0.3,0
		c0.2,0,0.3-0.3,0.3-0.6c0-0.4,0-1.2,0-2.2v-1.1c0,0,0-0.1-0.1-0.1h-4.3c0,0-0.1,0-0.1,0.1v1.1c0,1,0,1.8,0,2.2
		c0,0.3,0.1,0.5,0.4,0.6c0.1,0,0.4,0,0.5,0c0.1,0,0.1,0,0.1,0.1c0,0.1-0.1,0.1-0.2,0.1c-0.6,0-1.2,0-1.2,0c-0.1,0-0.7,0-1,0
		c-0.1,0-0.2,0-0.2-0.1c0,0,0-0.1,0.1-0.1c0.1,0,0.2,0,0.3,0c0.2,0,0.3-0.3,0.3-0.6c0.1-0.4,0.1-1.2,0.1-2.2v-1.8c0-1.6,0-1.9,0-2.2
		c0-0.3-0.1-0.5-0.4-0.6c-0.1,0-0.3,0-0.3,0c0,0-0.1,0-0.1-0.1c0-0.1,0-0.1,0.2-0.1c0.5,0,1.1,0,1.1,0c0.1,0,0.7,0,1,0
		c0.1,0,0.2,0,0.2,0.1c0,0,0,0.1-0.1,0.1c-0.1,0-0.1,0-0.3,0c-0.3,0-0.4,0.2-0.4,0.6c0,0.3,0,0.6,0,2.2v0.2c0,0.1,0,0.1,0.1,0.1h4.3
		c0,0,0.1,0,0.1-0.1v-0.2c0-1.6,0-1.9,0-2.2c0-0.3-0.1-0.5-0.4-0.6c-0.1,0-0.3,0-0.3,0c0,0-0.1,0-0.1-0.1c0-0.1,0.1-0.1,0.2-0.1
		c0.5,0,1.1,0,1.1,0c0,0,0.7,0,1,0c0.1,0,0.2,0,0.2,0.1c0,0,0,0.1-0.1,0.1c-0.1,0-0.1,0-0.3,0c-0.3,0-0.4,0.2-0.4,0.6
		c0,0.3,0,0.6,0,2.2V35.5z"/>
</g>
<g id="XMLID_41_">
	<path id="XMLID_62_" fill="#C3002F" d="M23.7,19.5c0.1,0.9,0.3,2.4,1.4,2.8c0.8,0.2,1.4,0.2,1.7,0.2c0.1,0,0.2,0,0.2,0.1
		c0,0.2-0.2,0.2-0.6,0.2c-0.6,0-3.4-0.1-4.4-0.2c-0.6-0.1-0.7-0.1-0.7-0.3c0-0.1,0.1-0.2,0.2-0.2c0.1,0,0.2-0.5,0.1-0.9L20.4,7.8
		h-0.1l-6.4,13.6c-0.6,1.2-0.6,1.4-0.9,1.4c-0.2,0-0.3-0.3-0.8-1.2c-0.7-1.3-2.9-5.8-3.1-6.1C8.9,15.1,6,8.8,5.7,8.1H5.6l-1,12.2
		c0,0.4,0,0.9,0,1.3c0,0.4,0.3,0.7,0.7,0.8c0.4,0.1,0.8,0.1,1,0.1c0.1,0,0.2,0.1,0.2,0.1c0,0.2-0.2,0.2-0.5,0.2
		c-1,0-2.2-0.1-2.4-0.1c-0.2,0-1.5,0.1-2.2,0.1c-0.3,0-0.4-0.1-0.4-0.2c0-0.1,0.1-0.1,0.3-0.1c0.2,0,0.4,0,0.8-0.1
		c0.9-0.2,0.9-1.2,1-2.2L4.8,3.2c0-0.3,0.1-0.5,0.3-0.5c0.2,0,0.3,0.1,0.4,0.4l8,16.5l7.7-16.4c0.1-0.2,0.2-0.4,0.4-0.4
		c0.2,0,0.3,0.2,0.3,0.7L23.7,19.5z"/>
	<path id="XMLID_59_" fill="#C3002F" d="M39.6,2.7c5.9,0,10.3,3.7,10.3,9.8c0,5.9-4.1,10.7-10.5,10.7c-7.2,0-10.2-5.6-10.2-10.3
		C29.2,8.7,32.3,2.7,39.6,2.7z M40.1,22.2c2.4,0,7.2-1.4,7.2-9c0-6.3-3.8-9.7-8-9.7c-4.4,0-7.6,2.9-7.6,8.6
		C31.7,18.3,35.4,22.2,40.1,22.2z"/>
	<path id="XMLID_56_" fill="#C3002F" d="M56,10.7c0-4.1,0-4.8-0.1-5.7c-0.1-0.9-0.3-1.3-1.1-1.5c-0.2-0.1-0.7-0.1-0.9-0.1
		c-0.1,0-0.2-0.1-0.2-0.2c0-0.2,0.1-0.2,0.4-0.2c1.2,0,2.8,0.1,3,0.1c0.3,0,2.3-0.1,3.1-0.1c1.6,0,3.4,0.2,4.8,1.2
		c0.7,0.5,1.8,1.8,1.8,3.6c0,1.9-0.8,3.9-3.2,6.1c2.1,2.8,3.9,5.1,5.4,6.7c1.4,1.5,2.5,1.8,3.2,1.9c0.5,0.1,0.9,0.1,1,0.1
		c0.1,0,0.2,0.1,0.2,0.2c0,0.2-0.2,0.2-0.6,0.2H71c-1.5,0-2.1-0.1-2.8-0.5c-1.1-0.6-2-1.9-3.5-3.9c-1.1-1.4-2.3-3.2-2.9-3.9
		c-0.1-0.1-0.2-0.2-0.3-0.2l-3.2-0.1c-0.1,0-0.2,0.1-0.2,0.2v0.6c0,2.5,0,4.6,0.1,5.7c0.1,0.8,0.2,1.3,1,1.4
		c0.4,0.1,0.9,0.1,1.2,0.1c0.2,0,0.2,0.1,0.2,0.2c0,0.1-0.1,0.2-0.4,0.2c-1.4,0-3.1-0.1-3.2-0.1c0,0-1.7,0.1-2.5,0.1
		c-0.3,0-0.4-0.1-0.4-0.2c0-0.1,0.1-0.2,0.2-0.2c0.2,0,0.5-0.1,0.8-0.1c0.5-0.1,0.7-0.7,0.8-1.4c0.1-1.1,0.1-3.2,0.1-5.7V10.7z
		 M58.1,12.9c0,0.1,0.1,0.2,0.2,0.3c0.4,0.2,1.6,0.4,2.8,0.4c0.6,0,1.4-0.1,2-0.5c0.9-0.6,1.6-2,1.6-4c0-3.3-1.7-5.2-4.5-5.2
		c-0.8,0-1.5,0.1-1.8,0.2c-0.1,0.1-0.2,0.2-0.2,0.3V12.9z"/>
	<path id="XMLID_54_" fill="#C3002F" d="M89.1,16.2c0-2.1-0.1-2.4-1.2-2.7c-0.2-0.1-0.7-0.1-0.9-0.1c-0.1,0-0.2-0.1-0.2-0.2
		c0-0.2,0.1-0.2,0.4-0.2c1.2,0,2.8,0.1,3,0.1c0.1,0,1.8-0.1,2.6-0.1c0.3,0,0.4,0.1,0.4,0.2c0,0.1-0.1,0.2-0.2,0.2
		c-0.2,0-0.3,0-0.7,0.1c-0.7,0.1-0.9,0.6-1,1.5c-0.1,0.8-0.1,1.6-0.1,2.7v2.9c0,1.2,0,1.2-0.3,1.4c-1.7,0.9-4,1.2-5.6,1.2
		c-2,0-5.7-0.3-8.6-2.8c-1.6-1.4-3.1-4.2-3.1-7.5c0-4.2,2-7.2,4.4-8.6c2.4-1.5,5-1.6,7-1.6c1.6,0,3.5,0.3,4,0.4
		c0.6,0.1,1.5,0.2,2.1,0.3c0.3,0,0.3,0.1,0.3,0.2c0,0.4-0.2,1.1-0.2,3.7c0,0.4-0.1,0.6-0.2,0.6c-0.1,0-0.2-0.2-0.2-0.4
		c0-0.4-0.2-1.1-0.6-1.7c-0.7-1-2.8-2.1-6.2-2.1c-1.6,0-3.6,0.2-5.6,1.7C77,6.6,75.9,9,75.9,12c0,3.7,1.9,6.4,2.8,7.3
		c2.1,2,4.5,2.8,6.9,2.8c0.9,0,2.3-0.2,3-0.6c0.3-0.2,0.5-0.5,0.5-0.9V16.2z"/>
	<path id="XMLID_51_" fill="#C3002F" d="M99.3,10.7c0-4.1,0-4.8-0.1-5.7c-0.1-0.9-0.3-1.3-1.1-1.5c-0.2-0.1-0.7-0.1-0.9-0.1
		c-0.1,0-0.2-0.1-0.2-0.2c0-0.2,0.1-0.2,0.4-0.2c1.2,0,2.8,0.1,3,0.1c0.3,0,2.3-0.1,3.1-0.1c1.6,0,3.4,0.2,4.8,1.2
		c0.7,0.5,1.8,1.8,1.8,3.6c0,1.9-0.8,3.9-3.2,6.1c2.1,2.8,3.9,5.1,5.4,6.7c1.4,1.5,2.5,1.8,3.2,1.9c0.5,0.1,0.9,0.1,1,0.1
		c0.1,0,0.2,0.1,0.2,0.2c0,0.2-0.2,0.2-0.6,0.2h-1.9c-1.5,0-2.1-0.1-2.8-0.5c-1.1-0.6-2-1.9-3.5-3.9c-1.1-1.4-2.3-3.2-2.9-3.9
		c-0.1-0.1-0.2-0.2-0.3-0.2l-3.2-0.1c-0.1,0-0.2,0.1-0.2,0.2v0.6c0,2.5,0,4.6,0.1,5.7c0.1,0.8,0.2,1.3,1,1.4
		c0.4,0.1,0.9,0.1,1.2,0.1c0.2,0,0.2,0.1,0.2,0.2c0,0.1-0.1,0.2-0.4,0.2c-1.4,0-3.1-0.1-3.2-0.1c0,0-1.7,0.1-2.5,0.1
		c-0.3,0-0.4-0.1-0.4-0.2c0-0.1,0-0.2,0.2-0.2c0.2,0,0.6-0.1,0.8-0.1c0.5-0.1,0.7-0.7,0.8-1.4c0.1-1.1,0.1-3.2,0.1-5.7V10.7z
		 M101.4,12.9c0,0.1,0.1,0.2,0.2,0.3c0.4,0.2,1.6,0.4,2.7,0.4c0.6,0,1.4-0.1,2-0.5c0.9-0.6,1.6-2,1.6-4c0-3.3-1.7-5.2-4.5-5.2
		c-0.8,0-1.5,0.1-1.8,0.2c-0.1,0.1-0.2,0.2-0.2,0.3V12.9z"/>
	<path id="XMLID_49_" fill="#C3002F" d="M121.8,15.3c0,2.5,0,4.6,0.1,5.7c0.1,0.8,0.2,1.3,1,1.4c0.4,0.1,0.9,0.1,1.2,0.1
		c0.2,0,0.2,0.1,0.2,0.2c0,0.1-0.1,0.2-0.4,0.2c-1.4,0-3.1-0.1-3.2-0.1c-0.1,0-1.8,0.1-2.6,0.1c-0.3,0-0.4-0.1-0.4-0.2
		c0-0.1,0.1-0.2,0.2-0.2c0.2,0,0.6-0.1,0.8-0.1c0.5-0.1,0.7-0.7,0.8-1.4c0.1-1.1,0.1-3.2,0.1-5.7v-4.6c0-4.1,0-4.8-0.1-5.7
		c-0.1-0.9-0.3-1.3-0.9-1.5c-0.3-0.1-0.6-0.1-0.8-0.1c-0.1,0-0.2-0.1-0.2-0.2c0-0.2,0.1-0.2,0.4-0.2c0.9,0,2.5,0.1,2.6,0.1
		c0.1,0,1.8-0.1,2.6-0.1c0.3,0,0.4,0.1,0.4,0.2c0,0.1-0.1,0.2-0.2,0.2c-0.2,0-0.3,0-0.7,0.1c-0.7,0.1-0.9,0.6-1,1.5
		c-0.1,0.8-0.1,1.6-0.1,5.7V15.3z"/>
	<path id="XMLID_46_" fill="#C3002F" d="M131.6,10.7c0-4.1,0-4.8-0.1-5.7c-0.1-0.9-0.3-1.3-1.1-1.5c-0.2-0.1-0.7-0.1-0.9-0.1
		c-0.1,0-0.2-0.1-0.2-0.2c0-0.2,0.1-0.2,0.4-0.2c1.2,0,2.8,0.1,3,0.1c0.3,0,2-0.1,3.5-0.1c2.6,0,7.4-0.2,10.5,3
		c1.3,1.4,2.5,3.5,2.5,6.7c0,3.3-1.4,5.8-2.8,7.4c-1.1,1.2-3.5,3-7.9,3c-1.1,0-2.5-0.1-3.6-0.2c-1.2-0.1-2-0.2-2.2-0.2
		c-0.1,0-0.5,0-1,0c-0.5,0-1.1,0.1-1.5,0.1c-0.3,0-0.4-0.1-0.4-0.2c0-0.1,0.1-0.2,0.2-0.2c0.2,0,0.6-0.1,0.8-0.1
		c0.5-0.1,0.7-0.7,0.8-1.4c0.1-1.1,0.1-3.2,0.1-5.7V10.7z M133.8,13.5c0,2.8,0,5.2,0.1,5.7c0,0.7,0.1,1.7,0.3,2c0.3,0.5,1.4,1,4.5,1
		c2.4,0,4.7-0.9,6.2-2.4c1.4-1.3,2.1-3.9,2.1-6.3c0-3.3-1.4-5.5-2.5-6.6c-2.5-2.6-5.4-3-8.6-3c-0.5,0-1.5,0.1-1.7,0.2
		c-0.2,0.1-0.3,0.2-0.3,0.5c0,0.9,0,3.6,0,5.6V13.5z"/>
	<path id="XMLID_44_" fill="#C3002F" d="M169.7,16.2c0-2.1-0.1-2.4-1.2-2.7c-0.2-0.1-0.7-0.1-0.9-0.1c-0.1,0-0.2-0.1-0.2-0.2
		c0-0.2,0.1-0.2,0.4-0.2c1.2,0,2.8,0.1,3,0.1c0.1,0,1.8-0.1,2.6-0.1c0.3,0,0.4,0.1,0.4,0.2c0,0.1-0.1,0.2-0.2,0.2
		c-0.2,0-0.3,0-0.7,0.1c-0.7,0.1-0.9,0.6-1,1.5c-0.1,0.8-0.1,1.6-0.1,2.7v2.9c0,1.2,0,1.2-0.3,1.4c-1.7,0.9-4,1.2-5.6,1.2
		c-2,0-5.7-0.3-8.6-2.8c-1.6-1.4-3.1-4.2-3.1-7.5c0-4.2,2-7.2,4.4-8.6c2.4-1.5,4.9-1.6,7-1.6c1.6,0,3.5,0.3,4,0.4
		c0.5,0.1,1.5,0.2,2.1,0.3c0.3,0,0.3,0.1,0.3,0.2c0,0.4-0.2,1.1-0.2,3.7c0,0.4-0.1,0.6-0.2,0.6c-0.1,0-0.2-0.2-0.2-0.4
		c0-0.4-0.2-1.1-0.5-1.7c-0.7-1-2.8-2.1-6.2-2.1c-1.7,0-3.6,0.2-5.6,1.7c-1.5,1.2-2.6,3.6-2.6,6.7c0,3.7,1.9,6.4,2.8,7.3
		c2.1,2,4.5,2.8,6.9,2.8c0.9,0,2.3-0.2,3-0.6c0.3-0.2,0.5-0.5,0.5-0.9V16.2z"/>
	<path id="XMLID_42_" fill="#C3002F" d="M179.9,10.7c0-4.1,0-4.8-0.1-5.7c-0.1-0.9-0.3-1.3-1.1-1.5c-0.2-0.1-0.7-0.1-0.9-0.1
		c-0.1,0-0.2-0.1-0.2-0.2c0-0.2,0.1-0.2,0.4-0.2c0.6,0,1.3,0,1.9,0l1.1,0.1c0.2,0,5.4,0,6,0c0.5,0,0.9-0.1,1.1-0.1
		c0.1,0,0.2-0.1,0.4-0.1c0.1,0,0.1,0.1,0.1,0.2c0,0.2-0.1,0.5-0.2,1.2c0,0.3-0.1,1.4-0.1,1.7c0,0.1-0.1,0.3-0.2,0.3
		c-0.2,0-0.2-0.1-0.2-0.3c0-0.2,0-0.6-0.2-0.9c-0.2-0.4-0.4-0.7-1.9-0.9c-0.4-0.1-3.3-0.1-3.6-0.1c-0.1,0-0.2,0.1-0.2,0.3v7.2
		c0,0.2,0,0.3,0.2,0.3c0.3,0,3.6,0,4.2-0.1c0.6-0.1,1-0.1,1.2-0.4c0.2-0.2,0.3-0.3,0.4-0.3c0.1,0,0.1,0.1,0.1,0.2
		c0,0.2-0.1,0.6-0.2,1.5c-0.1,0.5-0.1,1.5-0.1,1.7c0,0.2,0,0.5-0.2,0.5c-0.1,0-0.2-0.1-0.2-0.2c0-0.3,0-0.5-0.1-0.9
		c-0.1-0.4-0.3-0.8-1.4-0.9c-0.7-0.1-3.3-0.1-3.7-0.1c-0.1,0-0.2,0.1-0.2,0.2v2.3c0,0.9,0,3.9,0,4.5c0.1,1.8,0.5,2.1,3,2.1
		c0.7,0,1.8,0,2.5-0.3c0.7-0.3,1-0.8,1.2-1.9c0.1-0.3,0.1-0.4,0.2-0.4c0.2,0,0.2,0.2,0.2,0.4c0,0.2-0.2,2-0.3,2.5
		c-0.2,0.7-0.4,0.7-1.4,0.7c-2,0-3.4-0.1-4.4-0.1c-1-0.1-1.7-0.1-2-0.1c-0.1,0-0.5,0-1,0c-0.5,0-1.1,0.1-1.5,0.1
		c-0.3,0-0.4-0.1-0.4-0.2c0-0.1,0.1-0.2,0.2-0.2c0.2,0,0.6-0.1,0.8-0.1c0.5-0.1,0.7-0.7,0.8-1.4c0.1-1.1,0.1-3.2,0.1-5.7V10.7z"/>
</g>
</svg>
